<svg width="27" height="27" viewBox="0 0 27 27" fill="none" xmlns="http://www.w3.org/2000/svg">
<path d="M22.3269 6.29307C22.3269 5.39696 21.5978 4.67297 20.7068 4.67297C19.8107 4.67297 19.0867 5.39696 19.0867 6.29307C19.0867 7.18919 19.8157 7.91318 20.7068 7.91318C21.6029 7.91318 22.3269 7.18919 22.3269 6.29307Z" fill="black"/>
<path d="M24.4888 18.9552C24.4281 20.2715 24.2104 20.9854 24.0281 21.4613C23.7801 22.0891 23.4915 22.5397 23.0156 23.0156C22.5447 23.4864 22.0941 23.7801 21.4663 24.0231C20.9904 24.2104 20.2715 24.4281 18.9552 24.4939C17.5325 24.5547 17.1123 24.5698 13.5025 24.5698C9.89781 24.5698 9.47253 24.5547 8.04988 24.4939C6.73355 24.4332 6.01969 24.2104 5.54378 24.0231C4.91093 23.7801 4.4654 23.4864 3.9895 23.0156C3.5136 22.5447 3.21995 22.0941 2.97694 21.4613C2.79467 20.9854 2.57191 20.2715 2.51622 18.9552C2.44534 17.5325 2.43521 17.1022 2.43521 13.5025C2.43521 9.89274 2.4504 9.46747 2.51622 8.04482C2.57191 6.72848 2.79467 6.01463 2.97694 5.53366C3.21995 4.90587 3.5136 4.45528 3.9895 3.98444C4.46034 3.51359 4.91093 3.21995 5.54378 2.97187C6.01969 2.78455 6.73355 2.56685 8.04988 2.50609C9.46747 2.44534 9.89275 2.43015 13.4975 2.43015C17.1073 2.43015 17.5275 2.44534 18.9501 2.51116C20.2665 2.57191 20.9854 2.78961 21.4613 2.97694C22.0891 3.21995 22.5397 3.51359 23.0105 3.9895C23.4864 4.46034 23.7801 4.91093 24.0231 5.53872C24.2053 6.01969 24.4281 6.73355 24.4838 8.04988C24.5496 9.47253 24.5648 9.89781 24.5648 13.5076C24.5699 17.1022 24.5547 17.5325 24.4888 18.9552ZM26.919 7.93343C26.8532 6.49559 26.6254 5.51341 26.2912 4.65779C25.9469 3.7718 25.4862 3.01744 24.7369 2.26308C23.9876 1.51378 23.2333 1.05307 22.3473 0.708794C21.4866 0.374648 20.5095 0.146822 19.0716 0.0810051C17.6287 0.0151885 17.168 0 13.4975 0C9.83199 0 9.37127 0.0151885 7.92837 0.0810051C6.49559 0.146822 5.51847 0.374648 4.65273 0.708794C3.76674 1.05813 3.01744 1.51378 2.26814 2.26308C1.51378 3.01744 1.05307 3.76674 0.708794 4.65779C0.374648 5.51341 0.146822 6.49559 0.0810051 7.93343C0.0151885 9.37127 0 9.83199 0 13.5025C0 17.168 0.0151885 17.6287 0.0810051 19.0666C0.146822 20.5044 0.374648 21.4866 0.708794 22.3422C1.05307 23.2282 1.51378 23.9826 2.26814 24.7319C3.01744 25.4812 3.7718 25.9419 4.65273 26.2912C5.51847 26.6254 6.49559 26.8532 7.92837 26.919C9.36621 26.9848 9.83199 27 13.4975 27C17.168 27 17.6237 26.9848 19.0666 26.919C20.5095 26.8532 21.4866 26.6254 22.3422 26.2912C23.2282 25.9469 23.9826 25.4812 24.7319 24.7319C25.4862 23.9826 25.9419 23.2282 26.2861 22.3422C26.6254 21.4815 26.8481 20.4993 26.9139 19.0666C26.9798 17.6287 26.9949 17.168 26.9949 13.5025C27 9.83199 26.9848 9.37127 26.919 7.93343Z" fill="black"/>
<path d="M13.4974 17.9983C11.0116 17.9983 8.99656 15.9884 8.99656 13.5025C8.99656 11.0167 11.0116 9.00168 13.4974 9.00168C15.9832 9.00168 17.9982 11.0167 17.9982 13.5025C18.0033 15.9884 15.9832 17.9983 13.4974 17.9983ZM13.4974 6.56647C9.66991 6.56647 6.56641 9.67504 6.56641 13.5025C6.56641 17.33 9.66991 20.4335 13.4974 20.4335C17.3249 20.4335 20.4335 17.33 20.4335 13.5025C20.4335 9.67504 17.33 6.56647 13.4974 6.56647Z" fill="black"/>
</svg>
