<svg width="30" height="29" viewBox="0 0 30 29" fill="none" xmlns="http://www.w3.org/2000/svg">
<path d="M17.1836 16.8709C19.9809 16.8709 22.2486 14.6504 22.2486 11.9113C22.2486 9.17214 19.9809 6.95163 17.1836 6.95163C14.3863 6.95163 12.1186 9.17214 12.1186 11.9113C12.1186 14.6504 14.3863 16.8709 17.1836 16.8709Z" stroke="black" stroke-width="2" stroke-miterlimit="10" stroke-linecap="round" stroke-linejoin="round"/>
<path d="M28.3271 1L20.7802 8.38989" stroke="black" stroke-width="2" stroke-miterlimit="10" stroke-linecap="round" stroke-linejoin="round"/>
<path d="M22.2488 1H28.3268V6.95159" stroke="black" stroke-width="2" stroke-miterlimit="10" stroke-linecap="round" stroke-linejoin="round"/>
<path d="M15.8024 8.89863C17.7804 10.8766 17.8138 14.0503 15.8769 15.9872C13.94 17.924 10.7664 17.8907 8.78839 15.9126C6.81038 13.9346 6.77702 10.761 8.71389 8.82412C10.6508 6.88726 13.8244 6.92062 15.8024 8.89863Z" stroke="black" stroke-width="2" stroke-miterlimit="10" stroke-linecap="round" stroke-linejoin="round"/>
<path d="M12.4595 28.0002L12.3485 17.4383" stroke="black" stroke-width="2" stroke-miterlimit="10" stroke-linecap="round" stroke-linejoin="round"/>
<path d="M8.16153 23.7025L16.6678 23.7919" stroke="black" stroke-width="2" stroke-miterlimit="10" stroke-linecap="round" stroke-linejoin="round"/>
</svg>
