<svg width="41" height="41" viewBox="0 0 41 41" fill="none" xmlns="http://www.w3.org/2000/svg">
<path d="M20.5 39.5C30.9934 39.5 39.5 30.9934 39.5 20.5C39.5 10.0066 30.9934 1.5 20.5 1.5C10.0066 1.5 1.5 10.0066 1.5 20.5C1.5 30.9934 10.0066 39.5 20.5 39.5Z" stroke="white" stroke-width="3" stroke-miterlimit="10" stroke-linecap="round" stroke-linejoin="round"/>
<path d="M11.5 22.5C12.6046 22.5 13.5 21.6046 13.5 20.5C13.5 19.3954 12.6046 18.5 11.5 18.5C10.3954 18.5 9.5 19.3954 9.5 20.5C9.5 21.6046 10.3954 22.5 11.5 22.5Z" stroke="#9DEBEF" stroke-width="3" stroke-miterlimit="10" stroke-linecap="round" stroke-linejoin="round"/>
<path d="M20.5 22.5C21.6046 22.5 22.5 21.6046 22.5 20.5C22.5 19.3954 21.6046 18.5 20.5 18.5C19.3954 18.5 18.5 19.3954 18.5 20.5C18.5 21.6046 19.3954 22.5 20.5 22.5Z" stroke="#9DEBEF" stroke-width="3" stroke-miterlimit="10" stroke-linecap="round" stroke-linejoin="round"/>
<path d="M29.5 22.5C30.6046 22.5 31.5 21.6046 31.5 20.5C31.5 19.3954 30.6046 18.5 29.5 18.5C28.3954 18.5 27.5 19.3954 27.5 20.5C27.5 21.6046 28.3954 22.5 29.5 22.5Z" stroke="#9DEBEF" stroke-width="3" stroke-miterlimit="10" stroke-linecap="round" stroke-linejoin="round"/>
</svg>
