<svg width="290" height="294" viewBox="0 0 290 294" fill="none" xmlns="http://www.w3.org/2000/svg">
<path opacity="0.4" d="M275.204 97.0369C247.539 53.2507 189.608 40.25 145.822 67.9154C102.036 95.6848 89.035 153.616 116.804 197.402C131.781 221.115 155.598 235.78 181.288 239.836V293.087L251.595 222.779C290.909 193.866 301.726 138.951 275.204 97.0369Z" fill="#ED5267"/>
<path opacity="0.4" d="M173.383 96.1009C158.406 72.3877 134.589 57.7229 108.9 53.6667V0L37.4481 71.3476H37.5521C-1.03387 100.469 -11.5384 154.864 14.7749 196.362C42.4403 240.148 100.475 253.149 144.158 225.38C188.048 197.714 201.048 139.783 173.383 96.1009Z" fill="#00C2CB"/>
<path opacity="0.15" d="M116.804 197.402C124.189 208.947 133.653 218.411 144.366 225.484C188.152 197.714 201.153 139.783 173.383 96.101C165.999 84.5564 156.534 75.0919 145.822 68.0195C102.036 95.6849 89.035 153.616 116.804 197.402Z" fill="#44417C"/>
<path d="M99.4963 66.3011V66.0435C102.85 62.1801 103.882 57.2866 102.592 52.393C102.592 51.8778 102.334 51.8778 102.334 51.8778C102.076 51.1052 101.044 49.8174 100.27 50.0749C99.7543 47.7569 98.9803 44.6662 96.6583 44.9238C95.3683 45.1814 95.8843 45.954 96.1423 46.7267C96.9163 48.7872 97.1743 50.8476 96.9163 52.9081H96.6583C96.1423 51.1052 94.3363 44.1511 91.2403 45.1814C89.9503 45.6965 90.9823 46.7267 91.2403 47.4994C92.5303 49.5598 93.0463 51.8778 93.3043 54.1959C92.7883 52.6505 92.2723 50.8476 90.9823 49.5598C90.2083 48.7872 88.6603 46.9843 87.3703 47.7569C86.0803 48.5296 87.3703 49.5598 87.8863 50.3325C87.3703 50.5901 87.1123 51.1052 87.3703 51.8778C87.3703 54.4534 88.6603 56.7714 88.6603 59.0895C88.6603 61.4075 87.8863 63.4679 87.8863 65.7859C87.8863 66.8162 88.1443 68.104 88.6603 68.8766C88.9183 69.1342 90.4663 71.1947 90.7243 71.1947C92.0143 72.9976 92.7883 74.8005 94.0783 76.3458C94.0783 76.6034 97.1743 76.3458 97.6903 75.8307C98.4643 75.3156 99.2383 74.5429 100.012 73.7702C100.528 73.2551 101.56 71.1947 102.334 71.1947C102.592 71.1947 102.592 70.9371 102.85 70.9371C103.108 70.9371 103.108 70.6795 103.108 70.422C101.56 69.1342 100.528 67.5889 99.4963 66.3011Z" fill="#F59E73"/>
<path d="M120.91 61.9225C120.394 60.8923 119.62 58.5743 118.072 59.347C116.266 60.1196 117.556 62.4376 117.814 63.7254C118.33 65.7859 117.814 67.0737 117.04 68.8766C116.782 69.3917 116.524 70.1644 116.782 70.6795C117.298 71.9673 118.846 71.7097 119.62 70.6795C119.62 70.6795 119.878 70.6795 119.878 70.4219C120.652 69.1341 121.168 67.5888 121.426 65.7859C121.426 64.7557 121.426 63.4679 120.91 61.9225C121.168 61.9225 120.91 61.9225 120.91 61.9225Z" fill="#F59E73"/>
<path d="M134.068 56.2565C132.778 55.9989 131.23 55.9989 129.94 55.7414C128.908 55.4838 127.618 55.4838 126.586 55.2262C126.586 54.196 126.328 53.4233 125.812 52.9082L124.522 52.6507C123.232 52.3931 121.942 52.1356 120.91 51.878C119.104 51.6204 117.298 51.1053 115.492 50.8478C113.17 50.3326 110.848 50.0751 108.784 49.56C106.204 49.0449 103.882 48.5297 101.302 48.2722C98.7222 47.7571 96.1422 47.242 93.5622 46.9844C90.9822 46.4693 88.6602 46.2117 86.0802 45.6966C84.0162 45.4391 81.9522 44.9239 79.8882 44.6664C79.8882 44.6664 79.8882 44.4088 79.6302 44.1513C79.3722 43.8937 78.8562 43.8937 78.5982 43.6362C78.0822 43.6362 77.8242 43.3786 77.3082 43.3786C76.2762 43.121 72.4062 42.6059 71.3742 42.6059C70.8582 42.6059 70.3422 42.3484 69.8262 42.6059C69.3102 42.8635 68.7942 43.121 68.5362 43.6362C68.0202 44.1513 67.5042 44.6664 66.9882 45.4391C66.2142 46.7268 65.4402 48.2722 65.1822 49.8175C64.6662 52.9082 64.6662 56.2565 66.7302 58.832L66.9882 59.0896C66.9882 59.0896 66.9882 59.0896 67.2462 59.0896C69.5682 59.0896 72.1482 59.6047 74.4702 59.8623C75.2442 59.8623 75.7602 59.8623 76.2762 59.3472C90.2082 60.3774 116.266 62.6954 122.2 62.6954C123.232 62.6954 125.038 62.953 125.812 62.1803C125.812 61.9227 126.07 61.6652 126.07 61.1501C128.65 61.6652 131.23 61.6652 133.81 61.6652C134.068 61.6652 134.068 61.6652 134.068 61.4076C134.326 60.3774 134.584 59.6047 134.584 58.5745C135.1 57.8018 135.1 56.7716 134.068 56.2565Z" fill="#FAE7DC"/>
<path d="M119.878 65.786C119.878 65.5284 119.878 65.5284 119.878 65.2709C118.588 63.468 118.072 61.4075 118.33 59.3471C118.33 58.3168 118.588 57.2866 118.846 56.2564C119.104 55.2261 119.62 54.1959 118.846 53.4232C117.814 52.393 116.782 53.6808 116.524 54.4535C116.008 55.2261 115.234 56.2564 114.976 57.5442C114.976 57.8017 114.718 57.5442 114.718 57.5442C114.718 56.5139 114.718 55.2261 114.976 54.1959C115.234 53.4232 115.75 52.393 115.75 51.3628C115.75 50.3326 114.718 50.3326 114.202 50.5901C113.686 50.8477 112.654 51.1052 112.396 51.8779C112.912 51.1052 111.364 50.5901 110.848 50.8477C109.816 51.3628 109.3 52.393 108.526 53.4232C106.72 55.2261 104.914 56.2564 104.398 59.3471C104.14 60.8924 104.398 62.4378 104.914 63.9831C105.172 67.8465 106.204 71.4523 107.752 75.0581C107.236 75.3156 107.236 76.0883 107.752 76.0883C108.01 76.0883 108.01 76.0883 108.268 76.0883V76.3459C108.526 76.861 109.3 76.6034 109.3 76.3459C110.332 76.3459 111.364 76.6034 112.396 76.6034C113.686 76.6034 115.234 76.6034 116.524 76.0883C116.782 76.0883 117.04 76.0883 117.298 75.8307C118.588 72.7401 121.426 68.8767 119.878 65.786Z" fill="#F59E73"/>
<path d="M152.386 79.4365C152.128 78.6639 151.096 78.9214 151.096 79.4365L151.354 78.6639C141.808 79.6941 132.52 84.3301 122.974 86.133C118.846 86.9057 116.524 85.8755 113.686 83.0423C111.88 81.2394 110.074 79.179 108.526 77.1185C106.462 74.2854 101.56 68.104 101.044 68.3616C98.722 69.1342 96.658 70.1645 94.852 71.7098C93.82 72.4825 90.208 75.8307 90.724 77.3761C90.724 77.6336 96.4 90.7691 101.302 97.4656C104.656 101.844 107.752 104.677 113.428 104.935C126.586 105.45 141.808 105.45 153.934 99.2685C154.192 99.2685 154.192 98.7533 154.192 98.7533C153.934 92.0569 153.418 85.8755 152.386 79.4365Z" fill="#CF5F4C"/>
<path d="M158.578 48.7872C158.32 48.7872 158.32 48.7872 158.32 48.5297C158.836 46.9843 159.61 45.6965 157.804 44.4087C155.74 42.6058 153.676 43.1209 151.354 42.6058C151.354 42.6058 151.096 42.6058 151.096 42.3483C150.58 40.8029 149.29 39.5151 147.484 39.2576C145.936 38.7425 144.646 39 143.098 39.5151C142.324 39.7727 141.55 40.5454 140.776 41.0605C138.712 39 134.584 40.5454 134.068 43.6361C133.81 43.6361 133.552 43.6361 133.294 43.8936C132.262 44.1512 129.682 45.439 129.424 46.7268C128.65 48.7872 129.94 52.9081 132.52 53.9384C132.52 53.9384 132.778 53.9384 132.778 54.1959C133.294 55.7413 135.616 55.7413 137.164 55.7413C140.518 55.7413 143.872 55.7413 146.71 58.0593C150.322 61.15 152.386 66.0436 156.772 68.104C157.03 68.3616 157.804 68.6191 157.804 68.3616C157.546 66.5587 157.546 64.7558 158.32 63.2104C159.094 61.4075 160.384 60.1197 161.416 58.5744L161.674 58.3168C161.932 58.0593 162.448 57.8017 162.706 57.5442C162.964 57.0291 163.222 56.5139 163.48 55.9988C163.996 55.2261 164.254 54.1959 164.254 53.1657C163.996 50.075 161.158 49.0448 158.578 48.7872Z" fill="#9C593D"/>
<path d="M162.19 75.3157C159.094 70.6797 156.772 66.0437 155.482 60.635C156.256 58.8321 157.03 57.0292 157.288 54.9687C157.288 54.4536 157.03 54.196 156.514 54.196C156.256 53.6809 155.74 53.6809 155.224 53.9385C152.128 57.0292 148 59.3472 144.388 62.1803C142.066 63.9832 140.26 66.5588 140.518 69.6495C140.518 70.1646 141.292 70.4221 141.55 70.4221C143.614 73.7704 144.904 77.6337 146.194 81.4971C146.194 81.7547 146.194 81.7547 146.194 82.0122C150.064 89.2238 159.352 80.7244 161.674 76.6035V76.346C162.19 75.8308 162.19 75.5733 162.19 75.3157Z" fill="#F59E73"/>
<path d="M157.546 52.6505C155.482 42.3482 140.26 42.6058 134.068 48.5296C131.746 50.8476 131.23 54.4534 130.972 57.8017C130.456 58.3168 129.94 58.8319 129.166 59.347C128.65 59.8621 128.134 60.3772 128.134 61.1499C128.134 61.9226 128.65 62.4377 129.424 62.6953C129.94 62.6953 129.94 62.9528 129.94 63.2104C129.94 63.7255 129.682 64.2406 129.682 64.7557C129.682 65.2708 129.424 66.0435 129.424 66.5586C129.166 68.8766 129.166 70.9371 129.94 72.4824C132.778 77.1185 142.066 75.058 144.904 71.4522C146.968 69.1342 148.258 66.5586 150.322 63.983C154.45 61.4075 158.578 58.0592 157.546 52.6505Z" fill="#F59E73"/>
<path d="M206.308 225.729C204.502 217.487 202.696 208.988 200.632 200.746C198.826 193.019 198.568 185.808 198.568 178.081C198.568 171.642 198.052 165.461 194.956 159.794C194.698 159.279 193.924 159.279 193.666 159.794C177.412 160.567 160.642 162.112 144.388 160.052C144.388 159.022 143.098 159.022 142.84 160.052C141.808 159.794 141.55 161.34 142.324 161.597H142.582C139.486 190.959 137.938 220.32 138.196 249.682C138.196 250.197 138.454 250.455 138.97 250.455C150.064 250.97 183.088 249.94 188.248 249.94C194.956 249.94 201.922 250.455 208.372 248.652C208.63 248.652 208.888 248.137 208.888 247.879C209.92 240.41 207.598 232.941 206.308 225.729Z" fill="#59242E"/>
<path d="M138.196 55.2262C138.196 54.9687 137.938 54.7111 137.68 54.7111C136.39 53.9385 134.584 53.1658 133.036 53.9385C132.004 54.7111 131.23 56.2565 132.52 57.0291C133.036 57.2867 133.81 57.2867 134.326 57.2867C134.842 57.2867 135.1 57.0291 135.616 57.0291C136.132 57.0291 136.648 57.0291 137.164 57.0291C137.938 57.0291 138.454 55.9989 138.196 55.2262Z" fill="#9C593D"/>
<path d="M142.066 58.3168C141.55 57.8016 140.002 57.8016 139.486 58.3168L138.712 61.665C137.938 63.7255 137.164 65.7859 135.874 67.3313C134.326 69.1342 130.972 68.8766 129.166 69.6493C128.392 69.9068 127.102 75.5731 128.65 76.0882C131.488 76.8609 135.616 75.8307 138.196 74.0278C140.002 72.74 140.518 71.7097 141.034 69.3917C141.55 67.3313 141.292 65.0132 141.808 62.6952C142.066 61.665 142.84 59.0894 142.066 58.3168Z" fill="#9C593D"/>
<path d="M189.538 104.162C187.216 97.4655 183.604 91.2841 182.056 84.3301C182.056 83.815 181.282 83.815 181.024 83.815C177.412 80.7243 172.768 80.2092 168.124 80.9818C160.9 82.0121 153.676 84.8452 146.71 87.1632C141.808 88.9661 136.648 91.0266 132.52 94.6324C130.972 96.1777 126.586 100.299 128.392 102.617C130.198 112.146 132.778 121.418 135.874 130.69C136.39 132.236 136.648 134.039 136.648 135.842C136.648 142.796 137.68 158.764 138.196 165.718C138.454 168.036 138.712 170.354 138.712 172.93C138.712 173.96 138.712 175.505 139.486 176.536C140.26 177.566 141.55 178.081 142.84 178.339C148.258 180.399 153.676 181.429 159.61 181.429C166.06 181.429 185.926 180.914 196.246 175.763C199.342 174.218 199.858 171.642 200.374 168.036C200.632 167.521 197.02 126.054 189.538 104.162Z" fill="#CF5F4C"/>
<path d="M159.352 51.8779C158.32 48.0145 154.966 44.6663 151.096 44.1512C146.452 43.3785 141.034 43.6361 136.39 45.439C134.842 46.2116 132.778 46.9843 132.004 48.5296C131.488 49.3023 131.488 50.3326 131.488 51.1052C131.23 52.9081 131.746 54.4535 133.036 55.7413C135.1 57.2866 140.26 60.1197 142.582 59.6046C144.388 59.0895 147.484 62.4378 147.742 64.2407C147.742 65.2709 148.774 67.3313 149.548 68.104C151.612 70.6796 154.708 66.8162 157.288 68.104C157.546 68.104 157.804 68.104 157.804 67.8465C157.804 64.7558 158.062 61.9226 158.836 59.0895C159.094 56.5139 160.126 54.1959 159.352 51.8779Z" fill="#9C593D"/>
<path d="M181.798 74.2855C178.186 70.9373 168.898 68.1041 164.254 68.8768C161.158 69.3919 158.32 70.9373 155.224 71.7099C152.128 72.4826 149.032 72.7402 145.936 73.5128C141.55 74.8006 137.422 77.8913 136.648 82.7849C136.648 82.7849 136.39 82.7849 136.39 83.0425C136.132 84.0727 136.648 84.5878 137.422 84.8454C139.486 85.3605 141.808 84.8454 143.872 84.5878C148.516 84.3303 153.16 84.0727 157.546 85.618C159.61 86.3907 161.674 87.4209 163.738 88.4512C165.802 89.2238 167.866 89.739 169.93 89.9965C171.994 90.2541 174.316 90.2541 176.638 90.2541C178.444 90.2541 180.766 90.5116 182.056 89.4814C182.314 89.4814 182.314 89.4814 182.572 89.2238C184.894 86.1332 186.184 78.1489 181.798 74.2855Z" fill="#CF5F4C"/>
<path d="M118.072 94.3748C117.814 91.7992 117.814 89.4812 117.814 86.9056C117.814 84.0725 119.62 74.2853 118.588 73.5126C116.782 71.7097 111.364 71.7097 108.526 72.4824C106.978 72.74 105.688 72.9975 104.914 74.2853C104.14 75.5731 103.624 77.376 103.366 78.9213C101.302 85.1027 100.012 89.4812 99.4963 95.9201C99.2383 99.7835 98.9803 103.647 99.7543 107.51C100.27 109.828 101.56 115.752 111.106 114.722C111.106 114.722 118.33 105.45 118.33 101.586C118.588 99.0108 118.33 96.6928 118.072 94.3748Z" fill="#CF5F4C"/>
<path d="M145.42 57.2866C144.13 57.2866 143.098 57.8017 142.582 58.832C142.582 59.0895 142.324 59.0895 142.324 59.3471C142.066 60.3773 141.808 65.0133 142.324 65.0133C144.388 65.0133 145.936 62.9529 146.968 61.15C147.484 59.6046 147.484 57.2866 145.42 57.2866Z" fill="#F59E73"/>
<path d="M155.74 79.4365C155.224 79.1789 154.708 79.1789 154.192 78.9214C148.516 77.376 142.582 78.9214 137.164 81.2394C131.746 83.5574 127.102 86.9056 121.684 89.2237C116.266 91.7992 110.332 93.6021 104.914 96.4353C103.624 97.2079 102.076 97.9806 101.044 99.2684C98.4644 102.102 100.012 105.965 100.786 109.313C102.334 114.464 106.462 114.979 110.848 114.722C116.524 114.207 125.554 112.404 130.972 110.601C135.358 109.313 139.744 107.51 144.13 106.48C147.742 105.707 151.87 104.677 154.45 101.586C157.03 98.2382 158.836 93.087 159.61 88.7085C160.126 85.8754 159.868 82.7847 157.804 80.9818C157.288 80.2092 156.514 79.694 155.74 79.4365Z" fill="#CF5F4C"/>
<path d="M182.572 88.1936C178.702 88.7087 174.574 89.4814 170.704 88.7087C166.834 87.936 163.738 85.618 160.384 83.5575C154.966 80.2093 148.258 78.9215 141.808 80.2093C141.292 80.2093 141.55 80.982 142.066 80.7244C145.936 79.9517 149.806 80.2093 153.418 81.2395C157.288 82.2698 160.384 84.3302 163.48 86.3907C169.414 90.254 175.606 89.7389 182.314 88.7087C183.088 88.7087 182.83 88.1936 182.572 88.1936Z" fill="#2E0C12"/>
<path d="M153.676 73.2553C157.03 73.2553 160.384 73.5128 163.738 74.0279C163.996 74.0279 164.254 73.5128 163.996 73.5128C160.642 72.7401 157.288 72.4826 153.934 72.7401C153.418 72.7401 153.418 73.2553 153.676 73.2553Z" fill="#2E0C12"/>
<path d="M131.23 111.116C137.422 109.571 143.872 108.283 150.064 109.571C150.322 109.571 150.58 109.056 150.322 109.056C143.872 107.768 137.422 109.313 130.972 110.601C130.714 110.601 130.714 111.374 131.23 111.116Z" fill="#2E0C12"/>
<path d="M138.712 135.327C140.26 138.675 141.55 142.023 143.356 145.371C143.614 145.629 144.13 145.371 143.872 145.114C142.324 141.766 140.776 138.417 139.486 135.069C138.97 134.812 138.454 135.069 138.712 135.327Z" fill="#2E0C12"/>
<path d="M191.602 183.232C191.602 188.899 190.828 194.565 188.764 199.974C186.958 205.125 183.862 209.761 182.314 214.912C181.024 220.063 180.508 225.472 179.992 230.88C179.476 236.804 178.702 242.471 178.186 248.394C178.186 248.909 178.702 248.909 178.702 248.394C179.218 242.471 179.992 236.804 180.508 230.88C181.024 225.214 181.54 219.29 183.346 213.624C184.894 208.473 187.99 203.837 189.796 198.686C191.344 193.792 192.118 188.383 192.118 183.232C192.376 182.717 191.602 182.717 191.602 183.232Z" fill="#2E0C12"/>
<path d="M78.8563 44.9238C75.5023 48.5296 74.4703 53.6808 76.2763 58.3168C76.2763 58.5744 77.0503 58.5744 76.7923 58.0593C75.2443 53.6808 76.2763 48.7872 79.3723 45.1814C79.6303 44.9238 79.1143 44.6663 78.8563 44.9238Z" fill="#2E0C12"/>
<path d="M126.07 55.9988C125.554 57.5441 125.554 59.0895 126.07 60.8924C126.328 61.1499 126.844 61.1499 126.586 60.6348C126.07 59.0895 126.07 57.5441 126.586 56.2564C126.844 55.7412 126.07 55.4837 126.07 55.9988Z" fill="#2E0C12"/>
<path d="M131.23 83.8151C124.264 86.6482 118.072 90.5116 112.138 95.1476C111.88 95.4052 112.396 95.9203 112.654 95.6627C118.33 91.0267 124.78 87.1633 131.488 84.3302C132.004 84.0726 131.488 83.5575 131.23 83.8151Z" fill="#2E0C12"/>
<path d="M117.556 86.9056C117.814 88.451 117.814 89.9963 117.814 91.5417C117.814 92.0568 118.33 92.0568 118.33 91.5417C118.33 89.9963 118.33 88.451 118.072 86.9056C118.072 86.3905 117.556 86.3905 117.556 86.9056Z" fill="#2E0C12"/>
<path d="M104.398 75.0581C101.818 80.9819 100.012 87.4209 99.4961 93.8598C99.4961 94.3749 100.012 94.3749 100.012 93.8598C100.786 87.4209 102.334 81.2395 104.914 75.3157C105.172 74.8006 104.398 74.543 104.398 75.0581Z" fill="#2E0C12"/>
<path d="M111.88 51.878C110.332 53.4234 110.332 56.2565 110.848 58.0594C110.848 58.5745 111.622 58.317 111.364 57.8018C111.106 55.9989 111.106 53.4234 112.396 52.1356C112.654 52.1356 112.138 51.6205 111.88 51.878Z" fill="#C45547"/>
<path d="M108.268 53.4233C106.978 55.2262 106.72 57.5443 107.494 59.6047C107.494 59.8623 108.268 59.8623 108.01 59.3472C107.494 57.2867 107.752 55.4838 108.784 53.6809C109.042 53.4233 108.526 53.1658 108.268 53.4233Z" fill="#C45547"/>
<path d="M118.588 63.7254C118.846 63.983 119.104 64.2406 119.362 64.7557C119.62 65.0132 120.136 64.7557 119.878 64.4981C119.62 63.983 119.362 63.7254 118.846 63.2103C118.588 62.9528 118.33 63.4679 118.588 63.7254Z" fill="#C45547"/>
<path d="M98.2061 61.9226C97.4321 62.6952 96.9161 63.4679 96.6581 64.4981C96.4001 64.7557 97.1741 65.0133 97.1741 64.7557C97.4321 63.983 97.9481 62.9528 98.7221 62.4377C98.7221 61.9226 98.4641 61.665 98.2061 61.9226Z" fill="#C45547"/>
<path d="M160.9 57.0291C159.868 57.5442 159.094 58.0593 158.32 58.5744C157.288 59.0895 156.256 59.6046 154.966 59.3471C154.192 59.0895 153.676 58.5744 152.902 58.3168C151.354 57.5442 150.064 57.5442 148.516 58.3168C148 58.5744 148.516 59.3471 149.032 59.0895C151.87 57.5442 153.418 60.6349 156.256 60.1197C158.062 59.8622 159.61 58.3168 161.158 57.5442C161.932 57.5442 161.416 57.0291 160.9 57.0291Z" fill="#63311C"/>
<path d="M131.488 53.4233C132.262 54.1959 133.294 54.711 134.584 54.711C135.1 54.711 135.616 54.4535 136.39 54.4535C137.422 54.1959 137.68 54.1959 138.712 54.711C139.744 55.2262 140.002 55.4837 140.26 56.7715C140.518 57.2866 141.292 57.0291 141.034 56.5139C140.518 55.2262 139.744 53.6808 138.196 53.4233C135.874 52.9081 134.068 54.9686 131.746 52.9081C131.488 52.393 130.972 53.1657 131.488 53.4233Z" fill="#63311C"/>
<path d="M136.39 44.1512C138.454 44.1512 140.26 44.6663 142.066 45.6966C144.13 46.9844 144.904 48.5297 144.646 51.1053C144.646 51.6204 145.42 51.6204 145.42 51.1053C145.678 48.7873 145.162 46.9844 143.356 45.6966C141.292 44.1512 138.97 43.121 136.39 43.3786C135.874 43.3786 135.874 44.1512 136.39 44.1512Z" fill="#63311C"/>
<path d="M150.838 43.8935C150.064 44.9238 149.548 45.954 149.032 46.9842C148.774 47.4993 149.548 47.7569 149.806 47.2418C150.322 46.2116 150.838 45.1813 151.612 44.4087C151.87 43.8935 151.096 43.3784 150.838 43.8935Z" fill="#63311C"/>
<path d="M135.616 58.3169C134.842 58.0593 133.81 58.0593 133.036 58.5744C132.778 58.832 132.778 59.3471 133.036 59.3471C133.294 59.3471 133.81 59.0896 134.326 59.0896C134.842 59.0896 135.358 59.0896 135.616 59.3471C135.616 59.3471 135.874 58.5744 135.616 58.3169Z" fill="#1A0504"/>
<path d="M145.162 58.8319C144.13 59.6046 143.356 60.6348 142.84 61.9226C142.84 62.1802 143.356 62.4377 143.356 62.1802C143.614 61.15 144.388 60.1197 145.162 59.6046C145.678 59.0895 145.42 58.5744 145.162 58.8319Z" fill="#C45547"/>
<path d="M132.262 64.7559C131.23 65.0134 130.456 64.7559 129.682 64.7559C129.682 65.271 129.424 66.0436 129.424 66.5588C129.424 66.8163 130.972 66.3012 130.972 66.3012C131.488 66.0436 131.746 65.7861 132.262 65.5285C132.52 65.5285 132.52 65.271 132.52 65.0134C132.52 64.7559 132.52 64.7559 132.262 64.7559Z" fill="#C45547"/>
<path d="M129.94 62.4378C130.198 62.4378 130.456 62.4378 130.456 62.4378C130.972 62.4378 130.972 61.9227 130.456 61.9227C130.198 61.9227 129.94 61.9227 129.94 61.9227C129.682 61.6651 129.682 62.4378 129.94 62.4378Z" fill="#C45547"/>
<path d="M195.214 164.688C189.796 171.127 180.508 173.445 172.51 174.218C163.996 174.99 155.224 173.96 146.968 170.869C146.71 170.612 146.452 171.385 146.71 171.385C155.224 174.733 164.77 175.763 173.8 174.733C181.54 173.703 190.312 171.385 195.472 165.203C195.73 164.946 195.472 164.431 195.214 164.688Z" fill="#2E0C12"/>
<path d="M91.2403 102.874C92.2723 102.617 93.0463 102.617 94.0783 102.617C95.6263 102.359 97.6903 102.617 98.4643 101.071C97.6903 94.89 97.4323 89.4813 95.1103 82.5273C94.0783 79.4366 92.0143 76.6035 89.1763 74.8006C85.3063 72.225 79.6303 72.225 75.2443 73.2552C71.1163 74.0279 67.2463 76.0883 65.4403 79.9517C63.6343 83.5575 62.8603 87.6784 61.0543 91.2842C60.0223 93.3447 58.7323 95.1476 57.7003 97.4656C57.1843 98.7534 55.3783 102.617 56.9263 103.647C57.9583 104.42 59.7643 104.42 61.0543 104.677C62.8603 104.935 64.4083 105.45 66.2143 105.707C69.5683 106.223 72.6643 106.48 76.0183 105.965C79.8883 105.192 83.7583 104.42 87.6283 103.647C88.9183 103.389 90.2083 103.132 91.2403 102.874Z" fill="#471B17"/>
<path d="M113.428 232.941C117.814 218.002 119.104 202.549 117.298 187.096C117.814 179.111 117.556 171.127 117.04 163.143C119.62 157.219 113.428 155.931 108.268 156.704C100.27 157.734 92.272 161.34 85.306 165.203C85.048 164.688 84.016 164.946 84.016 165.718C84.016 171.385 84.532 173.703 85.564 179.111C85.564 179.369 85.564 179.626 85.564 179.884C83.758 190.444 81.952 197.14 80.404 207.7C78.856 219.548 76.792 239.122 76.792 251.227C76.792 251.485 77.05 251.742 77.308 251.742C81.694 251.742 111.622 252.258 112.654 251.227C112.654 250.455 113.428 236.031 113.428 232.941Z" fill="#F0959E"/>
<path d="M148.516 248.91C148.516 248.394 148.516 247.879 148.516 247.364V247.107C146.968 233.971 145.678 220.836 142.84 207.958C140.002 196.368 133.552 179.369 127.618 169.067C126.07 161.598 125.296 160.825 122.2 153.613C121.942 153.098 121.426 153.098 121.168 153.098C120.91 152.841 120.652 152.841 120.136 152.841C115.75 154.128 111.364 155.416 106.72 156.189C103.624 156.704 100.27 156.704 97.6901 158.507C92.5301 162.113 95.1101 170.097 95.8841 174.991C97.1741 182.975 98.7221 190.959 101.818 198.171C103.366 201.776 105.946 212.079 106.978 214.397C109.042 218.775 110.59 223.154 111.622 228.047C112.396 232.426 112.912 236.547 113.686 240.925C113.944 242.986 114.46 245.304 114.976 247.364C115.234 248.394 115.234 249.682 116.008 250.455C116.266 250.712 116.782 250.712 117.04 250.712C126.07 250.712 138.454 250.97 147.484 250.712C148.516 250.455 148.774 249.425 148.516 248.91Z" fill="#F0959E"/>
<path d="M163.48 211.048C162.448 207.958 160.9 205.382 159.352 202.549C157.804 199.973 156.772 197.14 154.966 194.565L154.708 194.307C152.902 190.444 150.838 186.58 148.774 182.975C148.516 182.46 148 182.717 147.742 182.975C147.484 182.975 147.484 182.975 147.226 182.975C144.904 184.262 141.292 186.065 140.26 188.641C140.002 188.898 140.26 189.156 140.518 189.414C142.066 192.247 143.614 195.08 144.904 198.171C145.162 198.428 145.162 198.943 145.162 199.201C145.162 201.776 144.646 204.352 144.646 207.185C144.646 210.533 146.194 214.397 147.484 217.487C148 218.775 149.032 219.548 150.58 219.548C153.16 219.548 149.29 211.821 149.548 210.791C149.548 210.533 150.064 209.761 150.58 209.761C150.838 209.761 150.838 209.761 151.096 209.761C152.128 210.791 152.902 211.821 153.418 213.109C154.192 214.397 154.708 215.684 155.482 217.23C155.224 217.745 154.966 218.26 154.708 218.775C154.45 219.548 153.934 220.578 154.192 221.093C154.708 222.123 155.74 221.866 156.772 221.351C156.514 222.381 156.256 223.154 156.514 223.926C156.772 224.699 158.062 225.472 158.578 224.957C159.61 223.926 160.384 222.638 160.642 221.093C160.642 220.836 160.642 219.548 160.9 219.548C160.9 219.548 160.9 219.548 160.9 219.29C161.158 218.518 161.158 217.745 161.158 217.23C163.48 215.684 164.254 213.882 163.48 211.048Z" fill="#F59E73"/>
<path d="M66.4721 110.601C59.7641 109.571 51.7661 109.828 45.8321 108.283C39.8981 106.738 34.2221 104.42 28.0301 102.874C25.7081 102.359 28.0301 100.556 25.4501 101.071C21.5801 101.844 21.3221 119.1 23.3861 120.646C26.4821 122.964 32.6741 126.569 48.6701 131.206C54.8621 133.008 61.8281 133.266 64.6661 137.902C65.1821 138.675 66.7301 110.343 66.4721 110.601Z" fill="#D1D5E3"/>
<path d="M93.3041 107.253C92.7881 105.45 92.0141 103.905 91.4981 102.102C90.9821 100.556 90.7241 99.0111 90.2081 97.4657C90.2081 97.2082 89.9501 96.6931 89.9501 96.4355C89.4341 93.3448 90.4662 89.2239 90.4662 87.6785C90.4662 84.8454 90.7241 81.4972 89.1762 78.4065C88.9181 77.8914 80.4042 83.8152 77.5661 87.6785C76.2762 89.2239 74.7281 91.5419 74.4701 93.6024C74.2121 94.8902 74.4701 96.6931 74.7281 97.9808C74.7281 98.496 74.9861 98.7535 75.2441 99.0111C76.7921 103.132 78.0821 107.51 79.3721 111.889V112.146C79.3721 112.404 79.3721 112.404 79.3721 112.662C80.9201 114.465 83.2422 114.207 85.3062 113.692C86.5962 113.177 87.8862 112.662 89.1762 111.889C90.2081 111.374 92.2722 110.601 93.0462 109.571C93.8202 108.798 93.5621 108.026 93.3041 107.253Z" fill="#F59E73"/>
<path d="M89.6919 79.4367C87.8859 74.5431 82.4679 73.5129 77.8239 74.2855C74.4699 74.8007 70.8579 75.5733 68.7939 78.664C66.4719 82.2698 66.4719 87.6785 66.2139 91.7994C65.9559 94.8901 65.9559 99.7837 68.0199 101.329C70.5999 103.132 74.2119 102.359 77.0499 101.587C83.4999 99.7837 84.2739 94.375 86.5959 88.9663C88.9179 86.3907 90.9819 83.3 89.6919 79.4367Z" fill="#F59E73"/>
<path d="M81.9521 84.3302C81.9521 84.0727 81.6941 84.0727 81.6941 83.8151C80.6621 83.0424 79.3721 82.2698 78.0821 82.2698C77.0501 82.2698 75.5021 83.5576 76.2761 84.8454C76.7921 85.3605 77.5661 85.3605 78.0821 85.618C79.1141 85.618 79.8881 85.8756 80.6621 86.1331C81.9521 86.6483 82.4681 85.1029 81.9521 84.3302Z" fill="#471B17"/>
<path d="M66.472 84.0727C66.472 83.8152 66.472 83.8152 66.73 83.5576C67.504 82.7849 68.536 81.7547 69.568 82.0123C70.342 82.0123 71.89 83.0425 71.374 84.5878C71.116 85.103 70.342 85.3605 69.826 85.3605C69.052 85.6181 68.536 85.8756 67.762 86.1332C66.73 86.3907 66.214 85.1029 66.472 84.0727Z" fill="#471B17"/>
<path d="M89.9502 76.0884C86.5962 73.2553 81.6942 72.7402 77.5662 73.2553C77.3082 73.2553 77.3082 73.5128 77.3082 73.5128C73.6962 73.5128 70.0842 75.0582 67.7622 77.8913C66.4722 79.4367 65.6982 81.2396 65.1822 83.0425C64.6662 84.3303 63.8922 86.3907 64.9242 87.6785C65.1822 87.9361 65.1822 87.6785 65.4402 87.6785C67.2462 86.3907 67.7622 84.0727 69.0522 82.5274C70.3422 81.2396 71.6322 80.2093 73.4382 79.6942C73.9542 79.4367 74.2122 79.6942 74.4702 80.2093C74.7282 80.7245 75.2442 81.4971 75.7602 82.0122C78.0822 85.1029 81.6942 86.9058 85.0482 88.1936C85.3062 88.1936 85.3062 88.4512 85.5642 88.7087C86.5962 91.2843 88.4022 93.3448 90.2082 95.4052H90.4662C90.4662 95.9203 90.9822 95.9203 91.2402 95.6628C91.7562 93.0872 91.4982 90.2541 91.4982 87.6785C91.4982 87.4209 91.4982 87.4209 91.2402 87.4209C91.4982 85.618 91.7562 83.8151 91.7562 82.0122C92.0142 79.1791 91.4982 77.3762 89.9502 76.0884Z" fill="#471B17"/>
<path d="M58.4743 87.936C60.7963 87.936 62.8603 87.4209 65.1823 86.9058C66.2143 86.6483 69.5683 86.3907 69.8263 85.1029C69.8263 84.3302 69.0523 83.8151 68.5363 83.5576C68.0203 83.5576 67.5043 83.5576 66.9883 83.5576C66.4723 83.5576 64.9243 83.8151 64.6663 83.0424C64.6663 82.2698 65.9563 81.7547 66.4723 81.7547C67.2463 81.4971 68.7943 81.4971 69.5683 81.2395C70.6003 80.982 71.8903 80.4669 72.9223 79.6942C73.6963 79.1791 73.9543 76.6035 71.8903 76.8611C67.7623 77.1186 63.8923 77.3762 59.7643 77.6337C56.6683 77.8913 53.3143 77.6337 50.7343 79.1791C50.7343 79.1791 50.7343 79.1791 50.7343 79.4366C48.4123 80.982 46.3483 82.5273 44.0263 84.0727C43.7683 84.3302 44.0263 84.5878 44.0263 84.5878V84.8453C45.8323 86.3907 45.8323 88.9663 46.6063 91.0267C46.6063 91.0267 46.6063 91.0267 46.6063 91.2843V91.5418C46.6063 91.7994 46.8643 91.7994 46.8643 91.7994C46.8643 91.7994 47.1223 92.057 47.3803 91.7994L52.2823 87.4209C52.5403 87.1634 52.7983 87.1634 53.0563 87.4209C54.0883 88.1936 56.1523 87.936 57.4423 87.936C57.4423 87.936 57.9583 87.936 58.4743 87.936Z" fill="#F59E73"/>
<path d="M69.3103 78.1487C68.5363 79.9516 63.1183 79.4365 61.5703 79.9516C60.7963 80.2092 60.0223 80.7243 59.2483 81.2394C57.7003 82.2697 56.4103 82.5272 54.6043 82.2697C54.0883 82.2697 54.0883 82.7848 54.6043 82.7848C56.1523 82.7848 57.4423 82.7848 58.7323 82.0121C60.5383 80.9819 61.8283 80.2092 64.1503 79.9516C65.9563 79.6941 69.3103 80.2092 70.0843 78.1487C70.0843 77.8912 69.5683 77.8912 69.3103 78.1487Z" fill="#C45547"/>
<path d="M70.6003 78.9215C69.0523 80.2093 66.7303 80.4668 64.6663 80.4668C64.1503 80.4668 64.1503 80.9819 64.6663 80.9819C66.9883 80.7244 69.0523 80.7244 70.8583 79.179C71.3743 79.179 70.8583 78.6639 70.6003 78.9215Z" fill="#C45547"/>
<path d="M122.974 146.144C122.2 140.735 122.458 136.872 120.91 131.463C120.91 131.206 120.91 131.206 120.652 130.948C119.362 126.57 117.814 120.646 113.944 117.813C109.816 114.464 92.272 109.313 89.176 109.313C86.08 109.056 64.408 110.086 61.57 110.086C58.732 110.344 56.668 112.404 56.152 115.495C56.152 116.267 55.894 117.04 55.894 117.813C55.894 120.388 57.184 122.706 58.216 125.024C58.732 126.312 59.506 127.6 60.022 128.888C60.538 129.66 61.828 131.463 62.086 132.236C62.602 138.932 63.892 145.371 68.278 150.78C69.826 152.583 71.632 153.871 73.18 155.674C74.728 157.219 75.76 159.279 76.792 161.082C78.598 164.173 80.404 168.809 83.5 170.612H83.758C86.08 172.157 89.176 171.642 91.756 171.642C109.816 171.9 122.2 162.113 122.2 161.855C125.554 158.764 123.49 149.492 122.974 146.144Z" fill="#D1D5E3"/>
<path d="M95.1101 111.374C95.3681 112.919 93.0461 101.587 91.4981 102.617C89.4341 103.905 86.8541 104.677 84.2741 104.935C82.7261 105.192 81.4361 104.935 79.8881 104.935C79.1141 104.935 76.7921 103.905 76.2761 104.935C75.7601 105.708 75.7601 106.738 76.0181 107.768C76.5341 109.828 76.7921 111.889 77.0501 113.949C77.0501 114.207 77.3081 114.465 77.5661 114.465C80.1461 116.01 83.2421 116.525 86.3381 116.01C89.1761 115.495 92.5301 114.98 94.5941 112.662C94.5941 112.662 94.5941 112.662 94.5941 112.404C95.1101 111.889 95.1101 110.859 95.1101 111.374Z" fill="#D1D5E3"/>
<path d="M96.6582 101.587C96.4002 101.587 96.4002 101.587 96.6582 101.587C96.4002 97.7232 95.3682 93.8599 93.5622 90.2541C93.0462 88.9663 92.2722 87.421 90.9822 86.9058C89.6922 86.3907 88.4022 86.9058 87.3702 87.6785C87.1122 87.4209 86.5962 87.421 86.8542 87.9361C86.8542 87.9361 86.8542 87.9361 86.8542 88.1936C86.5962 88.4512 86.5962 88.7087 86.8542 88.7087C87.1122 93.6023 85.5642 98.4959 82.4682 102.359C82.2102 102.617 82.4682 102.874 82.7262 102.874C87.3702 104.677 92.5302 104.42 97.1742 102.102C97.4322 102.102 96.9162 101.329 96.6582 101.587Z" fill="#471B17"/>
<path d="M87.628 86.1332C85.306 85.618 84.016 88.7087 83.5 90.2541C83.5 90.5116 83.5 90.5116 83.5 90.7692C83.5 90.7692 83.5 91.0268 83.758 91.0268C83.758 91.2843 83.758 91.5419 83.758 91.5419C83.758 92.5721 84.79 94.375 86.338 94.1174C87.37 93.8599 87.886 92.3145 88.144 91.5419C88.66 90.2541 90.208 86.3907 87.628 86.1332Z" fill="#F59E73"/>
<path d="M77.8241 112.146C82.9841 115.237 89.4341 115.237 94.5941 111.889C94.8521 111.631 94.5941 111.116 94.3361 111.374C89.4341 114.464 83.2421 114.722 78.3401 111.631C77.5661 111.374 77.3081 111.889 77.8241 112.146Z" fill="#2E0C12"/>
<path d="M124.264 169.067C119.62 172.157 113.944 173.96 108.526 175.248C101.818 176.793 94.8522 177.308 88.1442 176.021C87.8862 176.021 87.6282 176.536 87.8862 176.536C94.5942 177.566 101.302 177.308 108.01 175.763C113.686 174.475 119.62 172.672 124.522 169.324C124.78 169.324 124.522 168.809 124.264 169.067Z" fill="#2E0C12"/>
<path d="M99.4962 199.716C103.882 204.61 108.01 209.503 109.558 215.942C111.106 222.381 111.88 229.078 113.17 235.774C113.17 236.289 113.944 236.032 113.686 235.516C113.17 231.911 112.396 228.305 111.88 224.699C111.364 221.351 110.848 217.745 109.816 214.397C108.268 208.473 104.14 203.837 100.012 199.458C99.4962 198.943 99.2382 199.458 99.4962 199.716Z" fill="#2E0C12"/>
<path d="M152.902 189.414C153.16 189.156 152.902 188.898 152.902 188.641C151.87 185.808 142.324 165.203 139.228 158.764C135.874 152.068 133.036 145.114 129.682 138.417C125.812 130.69 122.2 122.706 114.718 117.813C111.88 116.01 106.204 114.464 103.108 113.434C103.108 113.434 102.334 114.207 102.334 114.464C101.302 117.297 101.56 120.388 101.818 123.221C101.818 124.767 102.076 126.57 102.592 128.115C104.398 135.584 109.042 141.508 113.686 147.432C117.814 152.84 121.168 158.249 123.49 164.688C125.812 171.385 127.102 172.672 130.198 178.854C133.552 185.293 137.938 191.732 142.582 197.398C142.84 197.913 143.098 197.655 143.614 197.398C148 196.11 150.838 193.277 152.902 189.414Z" fill="#D1D5E3"/>
<path d="M103.882 135.584C104.914 139.963 108.268 143.826 111.106 147.174C114.718 151.295 118.072 155.416 120.136 160.31C120.394 160.567 120.91 160.31 120.652 160.052C118.588 155.416 115.492 151.553 112.396 147.689C109.3 144.083 105.688 140.22 104.398 135.584C104.398 134.811 103.882 135.069 103.882 135.584Z" fill="#2E0C12"/>
<path d="M57.958 125.797C60.022 128.115 61.57 130.948 62.86 134.039C63.118 134.296 63.634 134.296 63.376 133.781C62.344 130.691 60.538 127.857 58.474 125.282C58.216 125.024 57.7 125.539 57.958 125.797Z" fill="#2E0C12"/>
<path d="M82.9841 96.4353C82.4681 97.4655 81.9521 98.7533 80.9201 99.526C79.8881 100.299 78.5981 100.556 77.3081 100.814C76.7921 100.814 77.0501 101.586 77.5661 101.329C78.8561 101.071 80.4041 100.814 81.1781 100.041C82.2101 99.2684 82.7261 97.9806 83.2421 96.6929C83.5001 96.4353 82.9841 96.1777 82.9841 96.4353Z" fill="#C45547"/>
<path d="M157.03 209.761C158.836 212.594 159.868 215.942 160.126 219.29C160.126 219.805 160.642 219.805 160.642 219.29C160.384 215.685 159.352 212.336 157.288 209.503C157.546 208.988 156.772 209.246 157.03 209.761Z" fill="#C45547"/>
<path d="M159.868 208.988C161.158 211.306 161.932 213.624 161.674 216.2C161.674 216.715 162.19 216.715 162.19 216.2C162.19 213.624 161.674 211.049 160.126 208.73C160.126 208.215 159.61 208.473 159.868 208.988Z" fill="#C45547"/>
<path d="M52.0241 92.057C51.2501 88.1936 50.2181 83.8151 46.0901 82.2698C45.8321 82.2698 45.5741 82.2698 45.5741 82.2698C45.3161 82.2698 45.3161 82.2698 45.0581 82.2698C40.4141 85.3605 36.0281 88.9663 31.9001 92.5721C26.2241 97.4657 16.1621 107.768 19.7741 116.782C21.0641 120.131 24.9341 121.419 28.2881 122.964C28.2881 122.964 34.9961 112.146 38.3501 107.253C42.2201 101.844 47.8961 98.2383 51.7661 92.8296C51.7661 92.8296 51.7661 92.5721 52.0241 92.5721C52.0241 92.5721 52.0241 92.3145 52.0241 92.057Z" fill="#D1D5E3"/>
<path d="M121.426 177.824C123.49 183.232 127.102 187.868 132.004 191.217C132.262 191.474 132.52 190.959 132.262 190.701C127.618 187.353 124.006 182.975 121.942 177.824C121.942 177.308 121.168 177.308 121.426 177.824Z" fill="#2E0C12"/>
<path d="M78.0821 86.9057C77.0501 87.1633 76.7921 88.1935 77.0501 89.2238C77.0501 89.9964 78.0821 91.2842 78.8561 90.254C79.1141 89.9964 79.3721 89.4813 79.3721 88.9662C79.3721 88.4511 79.3721 87.6784 79.1141 87.1633C78.8561 86.6482 78.5981 86.6482 78.0821 86.9057Z" fill="#1A0504"/>
<path d="M68.5362 86.3906C67.5042 86.6482 67.2462 87.6784 67.5042 88.7086C67.5042 89.4813 68.5362 90.7691 69.3102 89.7389C69.5682 89.4813 69.8262 88.9662 69.8262 88.4511C69.8262 87.936 69.8262 87.1633 69.5682 86.6482C69.3102 86.3906 69.0522 86.3906 68.5362 86.3906Z" fill="#1A0504"/>
<path d="M69.0522 85.6179C68.7942 85.8755 68.2782 85.8755 68.0202 85.8755C67.5042 86.133 66.9882 86.133 66.4722 86.3906C66.2142 86.3906 66.2142 87.1633 66.7302 86.9057C67.2462 86.9057 67.7622 86.6481 68.5362 86.3906C68.7942 86.3906 69.3102 86.133 69.5682 85.8755C69.8262 85.6179 69.3102 85.3604 69.0522 85.6179Z" fill="#C45547"/>
<path d="M71.6321 89.2238C70.8581 89.7389 70.0841 90.5115 70.3421 91.5418C70.3421 92.572 71.1161 93.0871 72.1481 93.3447C72.4061 93.3447 72.6641 92.8296 72.4061 92.8296C71.8901 92.572 71.1161 92.3144 71.1161 91.5418C70.8581 90.7691 71.6321 90.254 72.1481 89.7389C72.4061 89.4813 71.8901 88.9662 71.6321 89.2238Z" fill="#C45547"/>
<path d="M72.6642 92.3144C73.1802 92.0569 73.6962 92.3144 74.2122 92.572C74.4702 92.8295 74.9862 92.3144 74.4702 92.0569C73.9542 91.7993 73.1802 91.5418 72.4062 91.7993C72.1482 91.7993 72.4062 92.3144 72.6642 92.3144Z" fill="#C45547"/>
<path d="M74.2119 95.1477C73.6959 94.6326 72.6639 94.375 71.8899 94.375C71.6319 94.375 70.8579 94.6326 70.8579 95.1477C70.8579 95.9203 71.6319 96.1779 72.1479 96.1779C72.6639 96.1779 74.9859 96.1779 74.2119 95.1477Z" fill="white"/>
<path d="M87.628 87.6785C85.822 87.6785 85.048 90.254 84.79 91.5418C84.79 91.7994 85.306 92.0569 85.306 91.7994C85.564 90.7692 86.08 88.4511 87.37 88.4511C88.144 88.1936 88.144 87.6785 87.628 87.6785Z" fill="#C45547"/>
<path d="M38.3503 107.253C37.3183 109.571 36.0283 111.889 34.7383 114.207C34.4803 114.464 34.9963 114.979 35.2543 114.464C36.5443 112.146 37.5763 109.828 38.8663 107.51C38.8663 106.995 38.3503 106.738 38.3503 107.253Z" fill="#2E0C12"/>
<path d="M38.8661 108.541C38.8661 110.344 38.6081 112.146 38.3501 114.207C38.3501 114.464 38.8661 114.722 38.8661 114.464C39.3821 112.404 39.3821 110.344 39.6401 108.541C39.6401 108.026 38.8661 108.026 38.8661 108.541Z" fill="#2E0C12"/>
<path d="M123.232 161.34C125.038 163.143 126.844 164.946 128.65 166.749C128.908 167.006 129.424 166.491 129.166 166.234C127.36 164.431 125.554 162.628 123.748 160.825C123.49 160.567 122.974 161.082 123.232 161.34Z" fill="#2E0C12"/>
<path d="M83.5 78.1488C85.564 79.9517 86.08 82.5273 86.08 85.3604C86.08 85.8755 86.596 85.8755 86.596 85.3604C86.596 82.5273 85.822 79.6941 83.758 77.6337C83.758 77.3761 83.242 77.8912 83.5 78.1488Z" fill="#2E0C12"/>
<path d="M89.692 78.6638C91.24 81.497 90.466 84.3301 89.434 87.1632C89.176 87.4208 89.95 87.6783 89.95 87.4208C90.982 84.5876 92.014 81.2394 90.208 78.4063C90.208 77.8912 89.692 78.1487 89.692 78.6638Z" fill="#2E0C12"/>
<path d="M65.4399 89.9964C64.4079 94.1173 59.2479 97.4655 61.5699 102.102C61.8279 102.359 62.3439 102.102 62.0859 101.844C60.0219 97.4655 64.9239 93.8597 65.9559 89.9964C66.2139 89.7388 65.4399 89.4813 65.4399 89.9964Z" fill="#2E0C12"/>
<path d="M91.498 160.052C94.336 162.885 97.432 165.461 101.044 167.006C101.302 167.264 101.818 166.749 101.302 166.491C97.69 164.688 94.594 162.37 91.756 159.537C91.756 159.279 91.24 159.795 91.498 160.052Z" fill="#2E0C12"/>
<path d="M267.454 132.493C266.422 129.66 264.874 126.827 262.552 124.767C260.23 122.706 258.166 120.903 256.36 118.585C255.07 116.782 254.038 114.722 252.748 113.177C250.426 110.086 249.136 109.571 247.846 108.798C246.814 108.283 245.524 110.601 245.266 111.889C244.75 113.692 244.234 115.495 243.976 117.297C243.202 120.646 242.944 124.252 242.944 127.857C242.944 130.433 243.202 133.008 245.008 135.069C246.556 137.129 249.136 138.16 251.458 139.19C254.812 140.478 262.036 143.311 267.97 143.311C270.55 143.311 270.55 140.993 271.84 138.417C272.872 135.842 268.486 134.811 267.454 132.493Z" fill="#FAE7DC"/>
<path d="M244.492 219.033L243.46 192.762C243.46 191.989 242.17 192.504 242.17 191.474C242.17 191.216 242.17 191.216 241.912 190.959C242.17 190.701 242.17 190.186 241.912 190.186C241.912 189.929 241.912 189.671 241.912 189.414C241.912 188.383 240.364 188.383 240.364 189.414C240.364 189.671 240.364 189.671 240.364 189.929C222.304 187.096 207.598 192.762 189.538 188.898C187.732 188.383 181.024 224.441 180.766 225.987C179.476 233.713 178.702 241.698 178.186 249.682C178.186 249.94 178.186 250.197 178.444 250.197C178.444 250.455 178.444 250.712 178.96 250.97C189.796 252.773 233.14 252.258 244.492 250.97C244.75 250.97 245.266 250.712 245.266 250.455C246.556 241.183 245.524 228.305 244.492 219.033Z" fill="#D1D5E3"/>
<path d="M210.178 186.323C205.792 203.837 202.954 221.608 201.922 239.38C201.922 239.895 202.438 239.895 202.438 239.38C203.47 221.608 206.308 203.837 210.694 186.323C210.694 186.065 210.178 185.808 210.178 186.323Z" fill="#2E0C12"/>
<path d="M196.504 190.186C192.118 202.549 188.506 215.427 186.958 228.305C186.958 228.562 187.474 228.82 187.474 228.562C189.28 215.684 192.892 202.549 197.02 190.444C197.02 190.186 196.504 189.929 196.504 190.186Z" fill="#2E0C12"/>
<path d="M237.01 190.444C238.3 203.322 239.074 216.199 239.074 229.335C239.074 229.85 239.59 229.85 239.59 229.335C239.332 216.457 238.816 203.322 237.526 190.444C237.526 190.186 236.752 190.186 237.01 190.444Z" fill="#2E0C12"/>
<path d="M251.974 112.404C250.168 106.738 238.558 106.48 230.56 103.904C230.302 103.904 230.302 103.904 230.044 103.904C226.69 103.389 223.594 103.389 220.24 103.904C219.982 103.647 219.724 103.389 219.466 103.647C213.274 105.707 206.05 107.253 200.632 110.858C195.988 114.207 193.666 120.388 193.666 125.797C193.666 134.039 192.892 146.659 193.408 152.84C193.408 154.386 193.408 155.673 192.892 157.219C189.022 171.9 186.7 185.035 185.41 193.792C185.41 193.792 185.41 194.05 185.668 194.05C188.764 196.368 192.634 197.913 196.246 199.458C201.406 201.519 206.824 203.322 212.5 204.352C222.304 206.412 233.14 206.927 242.944 204.867C244.234 204.609 245.008 203.579 245.008 202.291C245.524 187.868 245.524 162.37 248.104 154.128C249.91 147.947 250.942 139.705 250.684 133.524C252.748 127.857 253.78 117.813 251.974 112.404Z" fill="#FAE7DC"/>
<path d="M262.81 105.45C261.52 102.359 261.004 100.299 259.972 97.208C259.714 96.6928 259.714 96.4353 259.714 95.9202C259.972 93.8597 260.23 91.7993 260.746 89.7388C261.004 87.9359 262.036 86.133 261.52 84.5876C261.262 83.5574 259.198 79.4365 257.134 78.9214C256.102 78.6638 255.586 78.9214 254.812 79.1789C253.006 79.6941 253.522 79.4365 252.232 79.1789C251.716 79.1789 251.458 78.9214 251.2 78.9214C249.394 79.1789 248.62 80.7243 248.62 82.2696C248.62 83.815 249.394 85.1028 250.168 86.3905C251.2 88.1934 250.426 91.0266 249.91 92.0568C249.394 93.6022 249.136 95.1475 248.878 96.6928C248.878 98.2382 249.394 99.526 250.426 100.299C250.684 100.556 250.942 100.814 250.942 101.071C251.716 103.904 252.232 105.45 253.522 108.283C253.264 108.54 253.522 108.798 253.78 108.798C253.78 108.798 253.78 108.798 254.038 108.798H254.296C257.134 109.571 260.488 108.283 262.552 106.48C262.552 105.707 262.81 105.707 262.81 105.45Z" fill="#F59E73"/>
<path d="M233.656 94.3748C230.56 90.2539 225.4 84.8452 219.724 86.3905C219.466 86.133 218.95 86.133 218.95 86.3905C219.466 94.1172 217.66 101.844 215.854 109.313C215.854 109.571 216.112 109.828 216.112 109.828C217.918 111.889 220.756 112.146 223.336 112.146C224.884 112.146 228.754 111.374 230.56 111.374C231.85 111.374 231.85 105.45 232.108 102.617L233.14 94.3748C233.656 94.8899 233.914 94.6324 233.656 94.3748Z" fill="#F59E73"/>
<path d="M232.882 102.617C232.624 102.617 232.624 102.617 232.624 102.874C230.818 104.162 229.012 105.45 226.69 105.707C225.658 105.965 224.368 105.707 223.336 105.707C222.82 105.707 222.304 105.45 221.788 105.192C221.53 105.192 220.24 104.677 220.24 104.42C219.982 104.42 219.724 104.42 219.724 104.677C219.724 104.677 219.466 104.677 219.466 104.935C218.434 108.025 217.66 110.859 217.66 114.207C217.66 114.722 218.176 114.722 218.434 114.207V113.949C218.434 113.692 218.434 113.692 218.434 113.692C221.53 114.207 224.368 115.495 227.722 115.237C230.56 114.98 233.14 113.692 235.204 112.146C235.462 112.146 235.462 111.889 235.204 111.889C235.204 111.889 235.204 111.889 235.204 111.631C234.688 103.905 234.172 102.359 232.882 102.617Z" fill="#FAE7DC"/>
<path d="M238.816 87.4208C238.816 85.1028 238.558 82.7848 238.3 80.7243C235.978 69.1343 218.176 72.2249 215.338 81.7546C214.822 83.815 214.564 86.1331 215.854 87.936C216.628 88.9662 217.66 89.4813 218.692 89.9964C219.982 90.7691 221.272 91.7993 222.304 92.8295C222.82 95.1476 225.658 100.814 226.174 100.814C226.174 100.814 234.946 101.844 237.526 99.526C239.59 97.7231 239.332 93.3447 239.074 90.7691C238.816 89.7389 238.816 88.4511 238.816 87.4208Z" fill="#F59E73"/>
<path d="M238.816 76.6034C236.236 72.4825 229.786 71.9673 225.4 72.4825C220.756 72.9976 216.112 74.0278 213.016 77.6336C211.21 79.6941 210.178 82.2696 209.404 85.1028C208.63 87.9359 208.114 94.1173 208.63 96.9504C209.146 99.2684 210.436 101.329 211.726 103.389C212.758 105.192 213.79 106.738 214.822 108.283C214.048 110.086 214.048 112.146 215.338 113.692C215.596 113.949 216.628 115.237 217.918 116.267C216.37 119.1 217.918 123.479 221.014 124.509C220.24 126.054 219.982 127.6 220.498 129.145C221.014 130.433 222.304 131.463 223.336 131.978C224.11 132.493 221.53 139.963 221.014 140.735C219.466 144.856 217.402 149.235 218.95 153.356C219.466 153.356 219.724 153.098 219.724 152.583C220.498 150.265 222.304 148.462 224.626 147.432C226.69 146.401 228.496 145.629 229.27 143.311C231.334 138.675 226.948 128.888 226.948 128.63C227.722 126.054 227.98 123.221 225.916 121.161C226.432 119.615 226.948 117.813 226.69 116.525C226.432 114.722 224.884 113.177 223.594 111.889C223.594 110.859 223.852 110.086 223.852 109.056C223.852 106.995 222.304 105.707 221.014 104.42C224.626 97.7231 225.4 89.4813 226.69 82.0121C228.238 79.179 229.786 76.3458 232.624 76.3458H232.882C237.01 77.6336 238.042 82.7848 238.816 86.6481C238.816 86.9057 239.332 86.9057 239.59 86.6481C240.622 83.5574 239.848 78.4063 238.816 76.6034Z" fill="#964939"/>
<path d="M262.81 83.5574C262.552 81.497 261.52 79.6941 259.972 79.1789C259.198 78.9214 258.424 78.9214 257.65 78.9214C256.36 79.4365 251.2 80.2092 250.168 79.6941C249.394 79.4365 248.362 79.4365 247.33 79.4365C246.556 79.4365 234.688 81.7545 232.624 82.2696C232.108 82.2696 229.786 82.7847 229.27 83.0423C226.69 84.3301 228.238 89.4812 228.496 89.9964C229.012 90.769 234.43 90.769 236.494 90.769C239.074 91.0266 241.654 91.0266 244.234 91.0266C245.782 91.0266 247.33 91.5417 249.136 91.2841C250.426 91.2841 250.942 90.5115 251.716 90.2539C252.49 89.9964 254.812 89.7388 255.586 89.7388C256.36 89.7388 257.134 90.2539 257.908 90.2539C258.166 90.2539 258.424 90.2539 258.682 90.2539C262.294 90.769 263.326 86.9057 262.81 83.5574Z" fill="#FAE7DC"/>
<path d="M257.65 78.9214H257.134C257.134 78.6638 256.876 78.9214 256.618 79.1789C256.102 79.1789 255.586 79.1789 255.07 79.4365C254.296 79.4365 253.522 79.9516 252.748 79.9516C251.974 79.9516 251.458 79.6941 250.942 79.4365C250.942 79.1789 250.684 79.1789 250.426 79.1789C250.168 79.1789 249.91 79.4365 249.652 79.4365H249.394C249.136 79.4365 248.878 79.6941 248.878 79.9516C250.168 79.9516 251.2 80.7243 251.974 81.7545C251.974 81.7545 252.232 81.7545 252.49 81.7545C253.264 81.497 254.038 80.9818 254.812 80.9818C255.586 80.7243 256.618 80.2092 257.392 79.9516C258.166 79.1789 258.166 78.9214 257.65 78.9214Z" fill="#F59E73"/>
<path d="M250.942 80.7243C253.522 83.0423 253.522 86.3906 252.232 89.4813C251.974 89.7388 252.49 90.2539 252.748 89.7388C254.296 86.3906 254.296 82.7848 251.458 80.2092C250.942 79.9516 250.684 80.2092 250.942 80.7243Z" fill="#2E0C12"/>
<path d="M255.844 79.6942C254.812 80.982 254.554 82.5273 254.554 84.0727C254.296 86.1331 255.07 87.4209 256.36 88.9663C256.618 89.2238 257.134 88.7087 256.876 88.4511C255.586 87.1634 255.07 85.8756 255.07 83.8151C255.07 82.2698 255.328 80.982 256.36 79.9517C256.618 79.9517 256.102 79.4366 255.844 79.6942Z" fill="#2E0C12"/>
<path d="M246.814 79.9516C244.492 81.4969 243.46 83.8149 243.976 86.6481C244.492 88.9661 246.04 91.0265 248.62 91.2841C249.136 91.2841 249.136 90.769 248.62 90.769C246.04 90.769 245.008 88.451 244.75 86.3905C244.492 84.0725 245.524 82.012 247.33 80.7242C247.33 80.2091 247.072 79.694 246.814 79.9516Z" fill="#2E0C12"/>
<path d="M234.688 94.89C234.43 93.8598 233.656 94.1173 232.882 94.3749C232.366 94.6325 231.592 94.89 231.076 95.1476C230.818 95.1476 230.56 95.4051 230.56 95.6627C230.302 96.1778 234.946 97.208 234.688 94.89Z" fill="white"/>
<path d="M248.104 151.295C245.782 162.37 242.428 173.188 238.558 183.747C238.3 184.005 239.074 184.263 239.074 184.005C242.944 173.445 246.298 162.628 248.62 151.553C248.878 151.038 248.362 151.038 248.104 151.295Z" fill="#2E0C12"/>
<path d="M194.44 154.901C194.44 159.022 194.698 162.885 195.214 166.749C195.214 167.264 195.73 167.006 195.73 166.491C195.214 162.628 194.956 158.764 194.956 154.643C195.214 154.643 194.44 154.643 194.44 154.901Z" fill="#2E0C12"/>
<path d="M242.17 91.5418C241.396 87.936 239.332 85.1028 241.138 81.497C241.396 81.2395 242.17 80.4668 242.17 80.2093C242.17 78.9215 241.138 78.1488 239.848 78.4064C239.332 78.6639 238.558 78.6639 238.042 78.9215C237.784 78.4064 237.268 78.1488 236.494 77.8912C235.978 77.6337 235.204 78.1488 234.43 78.4064C233.14 78.1488 231.85 78.4064 231.076 79.4366C230.302 80.4668 230.044 81.7546 229.528 83.0424C229.012 83.8151 229.012 84.5877 229.012 85.618C229.27 88.9662 231.334 93.0871 232.882 96.4354C232.882 96.6929 233.14 96.9505 232.882 97.208C232.366 99.7836 231.85 102.359 231.076 104.935C230.818 105.45 231.592 105.965 232.108 105.707C232.366 105.707 232.366 105.707 232.624 105.707C233.914 105.45 235.204 105.45 236.494 105.45C237.01 105.45 240.364 105.965 240.622 105.192C241.138 103.132 243.46 96.1778 242.17 91.5418Z" fill="#F59E73"/>
<path d="M276.226 127.857C274.678 122.964 272.872 118.328 270.808 113.692C269.776 111.631 268.744 109.828 267.454 108.025C266.938 107.253 266.164 106.223 265.39 105.45C264.874 104.935 263.326 104.162 263.068 103.647C262.552 102.359 261.52 99.5261 261.52 99.5261C261.52 99.011 260.746 98.4959 260.23 99.011C257.65 101.071 254.812 101.587 251.458 101.329C250.942 101.329 250.684 101.587 250.684 101.844C250.426 102.102 250.426 102.102 250.426 102.359C251.2 104.677 251.974 106.995 252.748 109.056V109.313C252.232 114.722 251.716 119.873 254.554 124.509C257.392 128.888 258.682 138.932 263.326 141.766C265.906 143.568 269.518 142.538 272.098 140.993C277 138.417 277.774 133.009 276.226 127.857C276.226 128.115 276.226 127.857 276.226 127.857Z" fill="#FAE7DC"/>
<path d="M232.108 139.705C230.302 136.099 226.69 133.266 223.852 130.175C220.498 126.312 217.402 122.191 215.08 117.555C214.306 115.752 213.532 114.464 211.468 113.692C209.662 112.919 207.34 112.404 205.534 113.177C205.276 113.177 205.276 113.434 205.276 113.434C202.18 114.98 200.89 118.07 199.858 121.161C198.568 125.024 197.278 128.888 198.052 132.751C198.826 136.614 201.148 140.22 203.986 142.796C207.082 145.886 210.178 148.204 213.79 150.522C216.886 152.325 219.466 155.931 226.432 156.189C230.044 156.446 230.56 152.583 231.85 149.492C233.398 146.659 233.656 142.796 232.108 139.705Z" fill="#FAE7DC"/>
<path d="M241.912 108.541C242.17 106.738 242.428 104.935 242.428 103.132C242.428 102.874 242.17 102.617 241.912 102.359L241.654 102.102C238.558 100.556 234.946 100.556 231.85 101.844C231.592 101.844 231.592 102.102 231.334 102.102C230.818 102.617 230.56 103.132 230.56 103.905C230.302 105.192 230.044 106.48 229.786 107.768C227.206 110.601 224.884 113.692 225.142 117.555C225.4 121.161 225.658 124.252 224.626 127.857C223.852 130.948 222.304 133.781 221.014 136.614C219.466 140.22 218.434 144.341 218.692 148.462C218.692 150.265 219.208 152.325 220.498 153.871C223.078 157.734 233.914 156.446 239.332 151.553C242.686 148.72 242.686 143.826 242.686 139.705C242.686 133.524 242.686 127.857 243.976 121.934C245.008 116.782 244.492 113.177 241.912 108.541Z" fill="#FAE7DC"/>
<path d="M252.748 113.949C252.49 116.01 252.748 118.07 253.522 120.131C254.296 122.191 255.844 123.994 256.36 126.055C257.392 129.403 257.392 133.266 259.714 136.099C259.972 136.357 260.488 135.842 260.23 135.584C257.65 132.751 257.908 128.888 256.876 125.282C256.36 123.737 255.586 122.449 254.812 121.161C253.522 118.843 253.264 116.525 253.264 114.207C253.264 113.434 252.748 113.434 252.748 113.949Z" fill="#2E0C12"/>
<path d="M255.07 126.312C254.812 129.145 255.328 131.721 256.102 134.296C256.102 134.554 256.876 134.554 256.618 134.039C255.844 131.463 255.586 128.888 255.586 126.054C255.844 125.797 255.07 125.797 255.07 126.312Z" fill="#2E0C12"/>
<path d="M247.846 122.449C249.394 127.085 250.168 131.721 250.684 136.614C250.684 137.129 251.458 137.129 251.2 136.614C250.684 131.721 249.91 127.085 248.362 122.191C248.362 121.934 247.588 122.191 247.846 122.449Z" fill="#2E0C12"/>
<path d="M208.888 113.176C214.564 115.237 215.854 122.191 219.982 125.797C220.24 126.054 220.756 125.539 220.498 125.282C216.112 121.418 215.08 114.464 209.146 112.404C208.63 112.404 208.372 113.176 208.888 113.176Z" fill="#2E0C12"/>
<path d="M241.654 107.51C242.17 109.313 242.944 110.858 243.718 112.404C244.492 114.464 244.492 116.525 244.234 118.585C243.976 122.449 242.686 126.312 242.428 130.175C242.17 134.039 242.428 137.902 242.17 141.765C241.912 145.886 241.396 151.037 238.042 153.871C234.43 156.961 229.528 156.961 225.4 155.931C221.272 155.158 218.434 153.098 215.08 150.265C209.146 145.371 202.438 140.735 198.568 134.039C198.31 133.781 197.794 134.039 198.052 134.296C201.406 139.962 206.566 143.826 211.468 147.947C214.048 150.007 216.628 152.583 219.466 154.128C222.046 155.673 224.884 156.189 227.722 156.446C233.398 156.961 239.074 155.158 241.396 149.492C243.976 143.053 242.686 135.584 243.202 128.887C243.46 124.767 244.75 120.903 245.008 117.04C245.008 115.495 245.008 113.692 244.492 112.146C243.976 110.343 242.944 108.798 242.428 106.738C242.17 106.995 241.654 107.253 241.654 107.51Z" fill="#2E0C12"/>
<path d="M222.82 131.463C221.53 136.099 218.95 141.508 219.724 146.659C219.724 147.174 220.498 146.917 220.24 146.402C219.466 141.508 222.046 136.099 223.336 131.463C223.594 131.206 223.078 130.948 222.82 131.463Z" fill="#2E0C12"/>
<path d="M221.788 133.008C219.466 135.326 217.66 137.902 216.37 140.993C216.112 141.25 216.628 141.765 216.886 141.25C218.176 138.417 219.982 135.842 222.304 133.524C222.562 133.266 222.046 132.751 221.788 133.008Z" fill="#2E0C12"/>
<path d="M230.818 107.768C234.172 106.48 237.784 105.45 240.88 107.768C241.138 108.025 241.396 107.51 241.138 107.253C238.042 104.935 234.172 105.707 230.56 107.253C230.302 107.253 230.302 107.768 230.818 107.768Z" fill="#2E0C12"/>
<path d="M253.522 105.965C257.134 107.768 260.488 105.965 263.326 103.389C263.584 103.132 263.068 102.617 262.81 102.874C260.488 105.192 257.134 106.995 253.78 105.192C253.522 105.192 253.006 105.707 253.522 105.965Z" fill="#2E0C12"/>
<path d="M230.56 104.935C230.302 105.965 230.044 107.51 229.27 108.283C228.754 108.798 227.98 109.313 227.722 109.828C226.69 111.116 225.916 112.919 225.4 114.464C225.4 114.722 225.916 114.979 225.916 114.722C226.432 112.404 227.464 110.601 229.27 109.056C230.56 108.025 230.56 106.737 231.076 105.192C231.334 104.677 230.818 104.419 230.56 104.935Z" fill="#2E0C12"/>
<path d="M200.632 187.096C209.662 194.05 220.756 197.655 232.108 197.398C232.624 197.398 232.624 196.883 232.108 196.883C220.756 196.883 209.92 193.277 200.89 186.58C200.632 186.323 200.374 187.096 200.632 187.096Z" fill="#2E0C12"/>
<path d="M223.336 98.4956C224.368 101.071 228.238 101.329 230.56 101.844C230.818 101.844 231.076 101.329 230.818 101.329C228.754 100.814 224.884 100.556 224.11 98.4956C223.852 97.9805 223.078 98.2381 223.336 98.4956Z" fill="#C45547"/>
<path d="M219.466 104.935C218.95 106.737 217.918 108.025 216.628 109.313C216.37 109.571 216.886 110.086 217.144 109.828C218.692 108.54 219.724 106.995 220.24 105.192C220.24 104.677 219.724 104.419 219.466 104.935Z" fill="#66281B"/>
<path d="M224.626 83.0422C223.594 85.3602 222.82 87.9358 221.53 90.2538C219.724 93.0869 216.112 95.6625 212.758 93.0869C212.5 92.8294 211.984 93.3445 212.242 93.6021C214.564 95.405 217.402 94.8898 219.724 93.3445C222.82 91.0265 223.336 86.9056 225.142 83.5573C225.4 83.0422 224.884 82.7846 224.626 83.0422Z" fill="#66281B"/>
<path d="M224.368 86.3907C223.594 91.0267 221.788 95.4052 219.466 99.5261C219.208 99.7837 219.724 100.299 219.982 99.7837C222.304 95.6627 224.11 91.2843 224.884 86.3907C224.884 86.1331 224.368 86.1331 224.368 86.3907Z" fill="#66281B"/>
<path d="M228.754 76.861C229.27 76.0883 229.786 75.5732 230.56 75.0581C231.592 74.5429 233.398 74.5429 233.656 76.0883C233.656 76.6034 234.43 76.3458 234.172 75.8307C233.914 74.5429 232.882 74.0278 231.592 74.0278C230.044 74.0278 229.012 75.3156 228.238 76.3458C227.98 76.861 228.496 77.1185 228.754 76.861Z" fill="#66281B"/>
<path d="M218.95 116.782C219.982 118.07 221.272 119.358 222.562 120.388C222.82 120.646 223.336 120.131 223.078 119.873C221.788 118.843 220.498 117.555 219.466 116.267C218.95 116.01 218.692 116.525 218.95 116.782Z" fill="#66281B"/>
<path d="M222.82 113.177C222.304 114.722 222.046 116.01 221.272 117.555C221.014 117.813 221.788 118.07 221.788 117.813C222.304 116.525 222.82 114.979 223.336 113.434C223.336 112.919 222.82 112.919 222.82 113.177Z" fill="#66281B"/>
<path d="M221.788 124.767C222.562 125.539 223.336 126.054 224.11 126.569C224.368 126.827 224.626 126.054 224.368 126.054C223.594 125.797 222.82 125.282 222.304 124.509C221.788 123.994 221.53 124.509 221.788 124.767Z" fill="#66281B"/>
<path d="M229.786 89.9964C230.56 91.5418 231.592 93.3447 232.366 95.1476C233.14 97.208 232.882 98.4958 232.366 100.556C232.366 101.071 232.882 100.814 232.882 100.556C233.14 99.011 233.656 97.208 233.14 95.4051C232.366 93.3447 231.076 91.5418 230.302 89.4813C230.044 89.2238 229.528 89.7389 229.786 89.9964Z" fill="#C45547"/>
<path d="M238.042 79.4365C237.526 80.4667 237.01 81.7545 236.752 82.7848C236.752 83.0423 237.268 83.2999 237.268 83.0423C237.526 81.7545 237.784 80.7243 238.558 79.6941C238.816 79.4365 238.3 79.179 238.042 79.4365Z" fill="#C45547"/>
<path d="M256.102 92.3144C255.328 93.0871 254.296 94.1173 254.038 95.4051C253.78 96.4354 254.296 97.208 254.812 97.7232C255.07 97.9807 255.586 97.4656 255.328 97.208C253.522 95.6627 255.328 93.8598 256.618 92.572C256.876 92.3144 256.36 92.0569 256.102 92.3144Z" fill="#C45547"/>
<path d="M254.038 79.4365C253.78 79.6941 253.264 80.2092 253.006 80.7243C252.748 80.9819 253.264 81.497 253.522 80.9819C253.78 80.4667 254.038 80.2092 254.296 79.9516C254.812 79.4365 254.296 78.9214 254.038 79.4365Z" fill="#C45547"/>
<path d="M252.232 79.1788C251.974 79.4364 251.716 79.694 251.458 79.9515C251.2 80.2091 251.458 80.4666 251.716 80.2091C251.974 79.9515 252.232 79.694 252.49 79.694C253.006 79.4364 252.748 78.9213 252.232 79.1788Z" fill="#C45547"/>
<path d="M234.946 77.8912C233.656 77.6336 232.624 77.3761 231.592 78.6639C230.818 79.6941 230.302 80.7243 229.786 82.0121C229.786 82.2697 230.302 82.5272 230.302 82.2697C230.56 81.2394 230.818 80.4668 231.592 79.6941C232.108 79.179 232.624 78.6639 233.398 78.6639C233.914 78.6639 234.43 78.6639 234.946 78.9214C235.462 78.4063 235.462 77.8912 234.946 77.8912Z" fill="#C45547"/>
<path d="M233.914 79.1789C233.398 80.2092 232.366 80.9818 232.366 82.2696C232.366 82.7847 232.882 82.7847 232.882 82.2696C232.882 81.7545 233.14 81.2394 233.398 80.9818C233.656 80.4667 233.914 80.2092 234.172 79.6941C234.688 79.1789 234.172 78.6638 233.914 79.1789Z" fill="#C45547"/>
<path d="M234.946 168.036C231.334 174.218 227.206 180.142 222.562 185.808C222.304 186.065 222.82 186.58 223.078 186.323C227.722 180.657 231.85 174.733 235.462 168.551C235.72 168.036 235.204 167.779 234.946 168.036Z" fill="#2E0C12"/>
</svg>
