<svg width="290" height="294" viewBox="0 0 290 294" fill="none" xmlns="http://www.w3.org/2000/svg">
<path opacity="0.4" d="M274.96 97.0367C247.295 53.2504 189.364 40.2498 145.578 67.9152C101.791 95.6846 88.7906 153.616 116.56 197.402C131.537 221.115 155.354 235.78 181.043 239.836V293.087L251.351 222.779C290.665 193.866 301.481 138.951 274.96 97.0367Z" fill="#ED5267"/>
<path opacity="0.4" d="M173.139 96.1009C158.162 72.3877 134.345 57.7229 108.656 53.6667V0L37.204 71.3476H37.308C-1.27801 100.469 -11.7825 154.864 14.5308 196.362C42.1962 240.148 100.231 253.149 143.913 225.38C187.804 197.714 200.804 139.783 173.139 96.1009Z" fill="#00C2CB"/>
<path opacity="0.15" d="M116.56 197.402C123.944 208.947 133.409 218.411 144.121 225.484C187.908 197.714 200.908 139.783 173.139 96.101C165.755 84.5564 156.29 75.0919 145.578 68.0195C101.791 95.6849 88.7906 153.616 116.56 197.402Z" fill="#44417C"/>
<path d="M168.2 121.672C166.008 121.068 164.032 120.021 162.102 118.844C160.488 117.86 159.386 117.135 158.37 114.795C157.069 111.797 157.718 102.736 157.765 100.372C157.772 100.09 156.762 100.694 156.57 100.6C154.154 97.6736 150.319 97.1524 146.746 96.9242C145.139 96.8213 141.96 96.3895 140.722 97.5953C139.911 98.3918 142.092 113.895 139.705 115.571C134.8 119.016 120.631 121.741 121.034 122.037C122.113 124.616 131.48 123.692 133.81 124.209C137.896 125.113 142.065 125.674 146.245 125.885C150.498 126.097 154.772 125.949 159.026 125.759C162.196 125.616 165.449 125.225 167.905 123.032C167.927 123.012 167.945 122.99 167.963 122.967C168.704 123.054 168.986 121.887 168.202 121.67L168.2 121.672Z" fill="#BF5B47"/>
<path d="M148.85 109.564C151.792 108.679 155.307 107.399 157.55 104.822C157.633 103.086 157.664 100.989 157.68 100.202C157.686 99.92 156.46 100.654 156.267 100.56C153.851 97.6336 150.016 97.1123 146.443 96.8841C144.836 96.7812 141.903 96.4747 140.665 97.6783C140.164 98.1705 140.84 104.153 140.864 109.043C143.365 110.119 146.233 110.354 148.852 109.564H148.85Z" fill="#82322A"/>
<path d="M182.654 206.166C182.625 206.032 182.719 206.264 182.654 206.166C182.6 205.732 181.425 205.45 180.903 205.651C165.429 211.627 148.927 214.148 132.459 215.405C130.137 215.582 127.811 215.748 125.487 215.871C123.519 215.976 121.271 216.061 119.827 214.497C119.283 213.909 118.435 215.323 118.424 215.443C118.079 219.007 117.721 222.985 117.745 226.569C117.761 228.965 117.927 239.155 119.308 239.502C122.65 240.337 143.52 239.976 150.619 239.469C150.94 239.446 151.304 239.245 151.369 238.898C151.763 236.782 151.842 231.596 152.052 229.459C152.278 230.439 152.668 234.032 152.784 235.037C152.838 235.498 152.892 235.958 152.943 236.419C152.945 236.515 152.948 236.609 152.952 236.706C152.954 236.809 152.977 236.896 153.008 236.979C153.022 237.104 153.037 237.229 153.051 237.354C153.109 237.858 153.064 238.455 153.418 238.851C153.498 239.151 153.736 239.408 154.136 239.419C159.113 239.565 165.758 239.797 170.735 239.596C173.137 239.5 175.537 239.361 177.932 239.182C179.882 239.037 181.852 239.028 183.446 237.764C183.784 237.495 184.776 216.043 182.656 206.17L182.654 206.166Z" fill="#3E3C75"/>
<path d="M127.038 229.336C137.876 230.493 149.482 227.833 159.234 223.151C163.644 221.034 168.057 218.714 172.302 216.282C176.264 214.012 180.339 211.34 182.909 207.477C182.83 207.025 182.748 206.586 182.656 206.166C182.602 205.732 181.427 205.45 180.905 205.651C165.431 211.627 148.929 214.148 132.46 215.405C130.139 215.582 127.813 215.748 125.489 215.871C123.521 215.976 121.273 216.061 119.829 214.497C119.285 213.909 118.437 215.323 118.426 215.443C118.081 219.007 117.723 222.985 117.747 226.569C117.747 226.627 117.747 226.69 117.747 226.752C120.555 228.316 123.958 229.01 127.04 229.339L127.038 229.336Z" fill="#051726"/>
<path d="M160.521 78.1277C159.209 72.9732 155.137 69.5078 149.873 68.7919C141.138 67.6017 136.663 74.6645 135.915 82.3984C135.599 85.6468 136.298 88.8572 137.032 92.0004C138.013 96.2019 138.447 101.177 142.492 103.417C146.204 105.471 152.623 105.549 156.482 103.947C159.583 102.661 161.123 98.0006 161.126 93.9938C161.126 88.7878 161.826 83.2396 160.523 78.1277H160.521Z" fill="#BF5B47"/>
<path d="M187.267 129.862C186.495 129.406 185.606 125.518 184.908 124.502C180.773 118.495 167.622 117.101 161.09 117.294C160.957 117.298 160.834 117.35 160.74 117.444C160.019 118.148 156.442 121.229 148.781 121.274C145.15 121.296 141.803 119.077 139.147 116.6C138.935 116.401 138.684 116.385 138.474 116.473C138.451 116.475 138.283 116.195 138.259 116.2C132.055 117.448 121.508 118.634 116.505 122.797C111.763 126.744 109.954 133.471 109.087 139.317C109.079 139.384 109.081 139.444 109.092 139.502C108.996 139.614 108.944 139.766 108.985 139.95C109.656 142.983 113.487 144.872 115.394 147.332C116.021 148.14 117.302 149.102 118.013 149.86C116.643 165.064 115.421 216.878 117.293 219.896C118.705 222.175 123.626 222.985 126.109 223.578C141.189 227.18 155.555 223.667 169.158 217.356C172.21 215.94 175.261 214.524 178.312 213.108C179.799 212.419 181.288 211.734 182.772 211.039C183.621 210.64 184.588 210.3 184.601 209.276C184.724 200.296 181.48 187.584 181.447 185.957C181.274 177.322 180.41 164.713 178.854 156.422C178.532 154.708 178.901 151.742 179.667 150.064C182.427 144.012 187.451 129.97 187.27 129.862H187.267Z" fill="#FC5A49"/>
<path d="M128.332 193.88C133.098 193.824 137.782 193.52 142.528 193.108C147.377 192.69 152.163 192.902 157.019 192.996C162.072 193.094 167.015 192.493 171.961 191.475C174.126 191.03 176.302 190.573 178.449 190.043C179.658 189.745 180.864 189.345 181.905 188.701C181.635 187.311 181.453 186.336 181.444 185.958C181.413 184.347 181.355 182.595 181.276 180.761C177.068 181.645 172.8 182.242 168.511 182.615C163.053 183.092 157.575 183.349 152.114 182.772C146.788 182.208 141.565 180.738 136.221 180.425C133.515 180.266 130.801 180.291 128.097 180.081C125.645 179.891 123.196 179.524 120.763 179.172C119.363 178.971 118.544 178.915 117.145 178.703C117.091 181.66 116.108 186.647 116.368 192.951C120.073 194.32 124.322 193.924 128.332 193.877V193.88Z" fill="#051726"/>
<path d="M137.899 146.954C137.27 147.397 136.988 149.037 136.766 149.728C136.426 150.784 136.124 151.852 135.788 152.905C134.756 156.138 133.195 159.227 131.774 162.299C130.251 165.592 129.007 169 127.807 172.422C128.595 173.069 129.593 173.552 130.377 173.897C131.673 174.467 133.209 175.056 134.619 175.217C136.927 175.483 137.308 173.013 137.908 171.241C139.003 168.015 140.136 165.36 140.136 155.212C140.136 151.438 139.981 152.511 139.271 148.773C139.175 148.27 138.799 146.321 137.899 146.954Z" fill="#051726"/>
<path d="M193.11 166.009C192.931 163.606 192.678 161.208 192.362 158.818C191.98 155.921 191.95 154.554 188.841 153.134C186.217 151.935 183.033 151.514 181.155 154.046C180.036 155.554 178.822 156.375 178.679 158.152C178.482 160.604 180.063 170.156 178.247 173.783C175.623 179.025 182.626 188.481 182.268 188.119C187.692 187.235 192.736 185.358 193.457 177.065C193.773 173.429 193.381 169.635 193.112 166.011L193.11 166.009Z" fill="#BF5B47"/>
<path d="M114.716 160.633C114.709 159.613 114.615 158.525 113.809 157.807C111.66 155.89 107.798 156.78 105.268 157.022C105.152 157.033 105.058 157.076 104.984 157.134C104.742 157.085 104.413 156.937 104.335 157.243C103.764 159.469 103.719 162.554 106.209 163.552C107.491 164.067 108.98 164.25 110.355 164.275C111.416 164.293 112.972 164.349 113.863 163.655C114.754 162.962 114.72 161.657 114.716 160.633Z" fill="#F2D9CB"/>
<path d="M105.43 160.955C105.826 162.185 107.093 162.595 108.253 162.838C110.245 163.259 112.497 163.373 114.485 162.774C114.734 162.109 114.718 161.31 114.714 160.633C114.707 159.612 114.613 158.525 113.807 157.807C111.669 155.899 107.834 156.771 105.304 157.017C105.096 158.322 105.031 159.727 105.427 160.955H105.43Z" fill="#051726"/>
<path d="M126.908 170.689C126.744 168.127 126.362 165.718 126.25 164.306C125.925 160.205 125.766 156.093 125.768 151.981C125.771 149.187 126.205 146.234 125.224 143.547C124.053 140.332 119.715 138.816 116.556 138.212C113.869 137.699 111.637 139.78 111.776 142.617C111.899 145.154 110.903 148.131 110.652 150.691C110.366 153.601 110.213 156.521 110.178 159.445C110.115 164.664 110.267 170.036 112.461 174.872C114.207 178.723 118.526 181.955 122.956 181.029C126.789 180.228 127.194 175.221 126.908 170.689Z" fill="#BF5B47"/>
<path d="M196.957 162.756C195.618 155.319 192.853 134.487 188.797 128.755C186.849 126.005 184.342 122.934 181.747 121.444C181.731 121.435 177.189 125.847 177.269 128.759C177.383 132.912 175.189 136.348 175.539 140.487C175.881 144.543 176.56 160.519 177.621 164.322C177.69 164.57 177.842 164.724 178.024 164.805C178.149 164.966 178.337 165.082 178.592 165.098C184.456 165.496 191.958 168.284 196.435 164.481C197.132 163.89 197.013 163.062 196.957 162.753V162.756Z" fill="#FC5A49"/>
<path d="M124.66 119.357C124.629 119.341 124.598 119.334 124.566 119.323C124.403 119.171 124.168 119.106 123.881 119.218C120.418 120.571 116.187 122.021 114.078 125.202C108.094 134.223 106.343 144.158 104.357 155.644C104.032 157.525 103.274 163.239 105.886 162C112.461 158.879 120.405 160.59 127.051 162.704C127.481 162.841 127.869 163.047 128.209 163.337C128.527 162.49 128.576 161.454 128.701 160.541C129.391 155.532 129.765 150.485 129.975 145.433C130.188 140.315 130.313 135.174 130.298 130.05C130.284 125.999 128.706 121.307 124.663 119.357H124.66Z" fill="#FC5A49"/>
<path d="M134.927 125.354C134.927 125.354 134.84 126.844 134.71 127.471C131.835 143.124 118.239 158.561 115.589 162.901C113.598 166.161 123.738 180.577 124.123 180.519C129.243 179.743 142.143 157.33 146.549 127.019C146.873 125.788 137.808 122.802 134.925 125.357L134.927 125.354Z" fill="#BF5B47"/>
<path d="M148.848 116.533C148.714 115.453 148.154 114.942 147.48 114.218C147.418 114.151 147.353 114.088 147.288 114.03C147.059 112.166 146.889 109.473 144.933 108.761C144.606 107.021 143.907 105.085 142.268 104.367C140.659 103.663 138.592 104.419 136.857 105.311C136.736 105.374 136.589 105.285 136.602 105.153C136.701 104.029 136.857 102.902 137.173 101.819C137.634 100.237 138.458 99.3873 140.03 98.7743C140.621 98.5417 141.207 98.2956 141.713 97.9824C142.409 97.6871 143.048 97.2687 143.352 96.5729C143.679 95.8257 143.412 94.998 142.609 94.678C141.498 94.2328 139.786 94.7519 138.704 95.0293C137.22 95.4096 135.651 95.9823 134.366 96.8056C133.309 97.4835 132.899 98.5551 132.557 99.6737C131.954 101.64 131.278 103.665 131.086 105.714C130.893 107.757 131.296 109.831 131.863 111.795C132.057 112.511 132.279 113.222 132.514 113.922C134.336 119.334 135.702 124.609 134.453 130.31C134.352 130.771 134.09 131.603 134.802 131.715C137.789 133.37 141.476 134.003 144.886 133.516C144.939 133.516 145.566 133.184 145.575 133.171C147.017 131.088 147.877 127.375 147.214 124.077C147.277 124.234 147.552 124.084 147.72 124.068C148.047 124.039 148.34 123.842 148.55 123.591C149.276 122.728 149.283 121.477 149.289 120.412C149.296 119.075 149.005 117.844 148.844 116.538L148.848 116.533Z" fill="#BF5B47"/>
<path d="M185.918 175.485C184.711 172.635 181.228 170.881 178.17 171.66C166.721 174.572 154.311 175.456 142.764 174.364C141.792 174.273 140.908 173.774 140.344 172.995C139.477 171.796 138.503 170.673 137.191 170C136.114 169.447 134.923 169.154 133.856 168.581C132.721 167.973 132 167.051 130.994 166.308C129.425 165.147 127.394 166.252 127.473 168.17C127.486 168.489 127.56 168.789 127.674 169.071C127.686 169.1 127.656 169.129 127.627 169.116C126.165 168.478 124.63 167.753 123.069 167.391C121.565 167.042 120.235 167.534 118.755 167.722C117.781 167.845 116.454 168.178 115.919 169.1C115.348 170.082 115.925 171.405 117.152 171.601C118.139 171.76 119.171 171.382 120.192 171.525C120.911 171.626 121.58 171.843 122.209 172.154C122.068 172.085 121.627 172.179 121.453 172.185C121.166 172.196 120.88 172.21 120.595 172.221C120.022 172.246 119.451 172.273 118.878 172.304C117.721 172.369 116.107 172.185 115.634 173.693C115.386 174.485 115.616 175.349 116.183 175.964C116.301 176.091 116.422 176.219 116.545 176.342C116.568 176.364 116.55 176.4 116.519 176.4C116.272 176.389 116.035 176.416 115.847 176.521C115.37 176.785 115.357 177.539 115.406 177.998C115.495 178.821 115.914 179.566 116.489 180.168C116.46 180.203 116.431 180.239 116.407 180.284C116.163 180.749 116.48 181.586 116.673 182.015C117.181 183.152 118.061 183.64 119.089 184.28C119.346 184.441 119.592 184.617 119.845 184.783C122.127 186.275 137.373 186.995 144.839 188.163C150.559 189.058 159.176 189.277 165.214 189.197C169.506 189.141 184.385 189.327 189.052 185.785C191.325 184.06 187.532 179.295 185.92 175.485H185.918Z" fill="#BF5B47"/>
<path d="M166.418 166.038C165.31 168.639 163.83 171.065 162.012 173.232C161.824 173.456 162.146 173.78 162.334 173.555C164.177 171.355 165.686 168.908 166.812 166.268C166.926 166.002 166.532 165.769 166.418 166.038Z" fill="#051726"/>
<path d="M118.764 132.296C121.782 135.889 124.233 139.985 126.044 144.312C126.156 144.578 126.597 144.462 126.483 144.191C124.641 139.786 122.16 135.634 119.086 131.974C118.898 131.748 118.576 132.072 118.764 132.296Z" fill="#051726"/>
<path d="M178.734 136.867C179.522 146.214 179.513 155.619 178.707 164.964C178.682 165.257 179.139 165.255 179.164 164.964C179.97 155.619 179.979 146.214 179.191 136.867C179.166 136.576 178.709 136.574 178.734 136.867Z" fill="#051726"/>
<path d="M138.274 95.4434C139.103 95.2242 139.944 95.0541 140.797 94.9691C141.561 94.8908 142.68 94.8573 143.038 95.7096C143.421 96.6202 142.353 97.1571 141.706 97.5151C141.001 97.9066 140.298 98.2958 139.593 98.6873C139.335 98.8305 139.566 99.2243 139.823 99.0811C140.786 98.5486 141.838 98.0743 142.736 97.4367C143.343 97.005 143.797 96.2779 143.466 95.5307C143.13 94.7723 142.293 94.4881 141.52 94.4747C140.399 94.4546 139.23 94.7186 138.153 95.0049C137.869 95.081 137.99 95.5195 138.274 95.4434Z" fill="#82322A"/>
<path d="M144.608 108.482C141.855 108.273 139.105 108.978 136.793 110.486C136.549 110.645 136.777 111.041 137.023 110.88C139.276 109.412 141.929 108.734 144.608 108.938C144.902 108.96 144.899 108.504 144.608 108.482Z" fill="#82322A"/>
<path d="M147.193 113.949C146.009 113.397 144.462 113.864 143.269 114.182C141.814 114.571 140.417 115.155 139.105 115.893C138.849 116.037 139.078 116.43 139.335 116.287C140.497 115.634 141.72 115.106 143 114.732C143.582 114.562 144.175 114.421 144.773 114.314C145.487 114.184 146.278 114.023 146.965 114.345C147.229 114.468 147.462 114.077 147.196 113.951L147.193 113.949Z" fill="#82322A"/>
<path d="M146.413 110.728C146.943 111.656 147.125 112.692 146.925 113.746C146.872 114.032 147.31 114.155 147.364 113.866C147.586 112.694 147.4 111.535 146.807 110.497C146.661 110.242 146.267 110.473 146.413 110.728Z" fill="#82322A"/>
<path d="M147 114.453C147.85 115.189 148.417 116.158 148.759 117.222C149.144 118.415 149.082 119.65 149.153 120.885C149.171 121.176 149.626 121.178 149.61 120.885C149.532 119.542 149.588 118.218 149.14 116.929C148.768 115.858 148.182 114.878 147.32 114.133C147.098 113.94 146.776 114.263 146.997 114.455L147 114.453Z" fill="#82322A"/>
<path d="M145.186 120.155C145.822 120.818 146.128 121.654 146.088 122.569C146.075 122.862 146.531 122.862 146.545 122.569C146.592 121.54 146.222 120.576 145.51 119.833C145.307 119.621 144.984 119.943 145.188 120.155H145.186Z" fill="#82322A"/>
<path d="M116.464 160.552C115.067 161.606 114.089 163.067 113.672 164.767C113.603 165.051 114.042 165.174 114.111 164.888C114.496 163.31 115.394 161.923 116.695 160.944C116.925 160.769 116.699 160.373 116.464 160.55V160.552Z" fill="#82322A"/>
<path d="M180.043 171.244C182.34 170.255 184.827 169.841 187.321 170.006C187.615 170.027 187.612 169.57 187.321 169.55C184.742 169.378 182.186 169.827 179.813 170.848C179.544 170.964 179.777 171.355 180.043 171.241V171.244Z" fill="#82322A"/>
<path d="M127.888 169.331C130.244 169.847 132.541 170.588 134.75 171.55C135.017 171.666 135.249 171.272 134.981 171.156C132.733 170.176 130.405 169.418 128.009 168.89C127.723 168.827 127.602 169.266 127.888 169.328V169.331Z" fill="#82322A"/>
<path d="M133.931 168.25C132.409 167.467 131.124 165.68 129.221 165.917C127.712 166.105 126.975 167.713 127.638 169.027C127.77 169.288 128.164 169.058 128.032 168.796C127.692 168.123 127.784 167.317 128.352 166.792C128.914 166.273 129.709 166.279 130.396 166.514C131.652 166.944 132.534 168.047 133.701 168.646C133.96 168.781 134.193 168.387 133.931 168.253V168.25Z" fill="#82322A"/>
<path d="M127.925 168.89C126.024 168.501 124.381 167.322 122.426 167.14C121.426 167.049 120.414 167.187 119.442 167.42C118.553 167.633 117.613 167.883 116.791 168.293C116.216 168.579 115.677 169.08 115.607 169.753C115.535 170.438 115.985 171.069 116.565 171.391C117.322 171.814 118.22 171.671 119.046 171.671C120.067 171.671 121.159 171.812 122.14 172.094C122.422 172.174 122.543 171.736 122.261 171.655C121.522 171.442 120.761 171.364 120 171.284C119.236 171.203 118.486 171.284 117.725 171.232C116.885 171.176 115.748 170.552 116.135 169.541C116.447 168.727 117.49 168.48 118.233 168.241C119.885 167.709 121.654 167.326 123.373 167.765C124.898 168.154 126.255 169.015 127.806 169.331C128.093 169.389 128.216 168.95 127.927 168.892L127.925 168.89Z" fill="#82322A"/>
<path d="M129.736 173.185C127.62 172.772 125.491 172.232 123.351 171.966C122.274 171.832 121.275 172.058 120.21 172.172C119.317 172.266 118.412 172.19 117.523 172.311C115.909 172.528 115.237 173.821 115.676 175.342C115.884 176.062 116.176 176.539 116.91 176.758C117.955 177.069 119.03 177.317 120.096 177.552C121.228 177.803 122.372 178.007 123.528 178.109C124.77 178.221 126.019 178.118 127.26 178.228C127.553 178.253 127.551 177.798 127.26 177.772C126.091 177.669 124.916 177.763 123.747 177.671C122.52 177.575 121.309 177.356 120.109 177.087C119.073 176.854 117.964 176.651 116.959 176.295C115.938 175.933 115.636 174.002 116.404 173.246C117.12 172.541 118.361 172.727 119.272 172.693C120.346 172.653 121.405 172.362 122.475 172.36C123.678 172.355 124.893 172.698 126.066 172.928C127.248 173.161 128.431 173.391 129.613 173.624C129.899 173.68 130.022 173.241 129.734 173.185H129.736Z" fill="#82322A"/>
<path d="M116.1 176.262C115.218 176.825 115.345 178.302 115.603 179.175C115.952 180.362 117.118 180.729 118.202 180.998C121.056 181.705 124.222 182.819 127.144 181.852C127.421 181.761 127.302 181.32 127.023 181.414C124.62 182.21 122.113 181.492 119.747 180.911C118.748 180.664 117.459 180.541 116.621 179.897C116.082 179.483 115.961 178.855 115.921 178.206C115.889 177.682 115.831 176.978 116.333 176.658C116.579 176.501 116.35 176.105 116.102 176.264L116.1 176.262Z" fill="#82322A"/>
<path d="M168.692 157.59C161.28 157.59 161.067 151.552 160.839 145.165C160.832 144.999 160.87 144.845 160.948 144.706C161.022 144.319 161.34 144.048 161.833 143.961C164.456 143.491 172.617 143.545 174.674 144.046C175.276 144.192 175.523 147.444 175.274 149.858C174.985 152.675 173.808 157.425 169.183 157.583C169.017 157.59 168.851 157.592 168.692 157.592V157.59ZM167.929 144.089C165.513 144.089 163.12 144.194 161.913 144.409C161.595 144.465 161.421 144.603 161.392 144.816C161.387 144.849 161.376 144.881 161.358 144.91C161.313 144.981 161.291 145.057 161.295 145.149C161.53 151.711 161.734 157.373 169.169 157.127C171.303 157.053 172.879 155.908 173.855 153.722C175.469 150.113 174.873 145.044 174.518 144.478C173.403 144.223 170.653 144.091 167.931 144.091L167.929 144.089Z" fill="#051726"/>
<path d="M155.981 85.2417C154.814 85.8704 155.076 87.7138 155.51 88.6378C155.815 89.2866 156.715 89.687 157.348 89.0718C158.007 88.4342 157.98 87.4991 157.801 86.6892C157.686 86.1702 157.447 85.4834 156.878 85.2127C156.56 85.0628 156.245 85.1008 155.981 85.2417Z" fill="#1A0202"/>
<path d="M143.371 85.9107C142.27 86.593 142.606 88.4834 143.065 89.4208C143.387 90.0785 144.276 90.4633 144.86 89.8101C145.467 89.1345 145.402 88.1725 145.194 87.3425C145.059 86.8123 144.8 86.112 144.238 85.8525C143.924 85.7071 143.62 85.7563 143.371 85.9107Z" fill="#1A0202"/>
<path d="M151.469 88.6914C152.242 89.4833 152.969 90.8547 151.868 91.7004C151.637 91.8771 151.866 92.2731 152.099 92.0941C153.455 91.0538 152.808 89.4118 151.792 88.3692C151.586 88.1589 151.263 88.4811 151.469 88.6914Z" fill="#82322A"/>
<path d="M148.764 92.1298C149.1 91.6533 149.697 91.5571 150.185 91.8569C150.436 92.0113 150.667 91.6175 150.416 91.4632C149.702 91.0269 148.847 91.2238 148.37 91.8994C148.2 92.1388 148.596 92.367 148.764 92.1298Z" fill="#82322A"/>
<path d="M174.945 200.273C167.007 207.379 157.183 212.305 146.753 214.48C143.8 215.095 140.806 215.484 137.795 215.65C137.504 215.665 137.502 216.122 137.795 216.106C148.548 215.515 159.09 212.023 168.09 206.117C170.618 204.459 173.016 202.611 175.268 200.596C175.487 200.399 175.163 200.079 174.945 200.273Z" fill="#051726"/>
<path d="M159.894 82.2664C159.915 83.2507 158.744 84.112 157.839 84.4342C156.939 84.7541 155.41 84.6758 154.447 84.4991C153.315 84.2932 152.298 83.3782 152.907 82.0113C153.4 80.9061 154.694 81.0001 155.71 81.0762C156.227 81.1142 156.648 81.1008 157.145 80.9554C157.9 80.7361 158.694 80.546 159.359 81.1925C159.731 81.5527 159.888 81.9174 159.894 82.2641V82.2664Z" fill="#40181F"/>
<path d="M146.506 81.2127C146.459 81.1836 146.41 81.1568 146.36 81.1344C145.913 80.9196 145.391 80.8883 144.901 80.9688C144.191 81.0852 143.551 81.4342 142.864 81.6355C142.058 81.8704 141.223 82.0091 140.39 82.0964C139.736 82.1657 139.015 82.5707 138.872 83.2843C138.684 84.2284 139.476 84.7161 140.204 85.0696C141.8 85.8437 144.028 85.5305 145.541 84.9331C146.484 84.5618 147.446 83.5438 147.321 82.4633C147.26 81.9443 146.949 81.4789 146.506 81.2127Z" fill="#40181F"/>
<path d="M154.208 95.8279C151.846 95.0001 149.157 95.8234 146.793 96.2529C146.58 96.291 146.352 96.499 146.345 96.7272C146.32 97.3783 147.778 97.0561 148.1 96.9979C149.101 96.8145 150.05 96.6601 151.08 96.64C152.141 96.6198 153.198 96.7854 154.243 96.5952C154.678 96.5169 154.523 95.9397 154.208 95.8301V95.8279Z" fill="#7D2D24"/>
<path d="M148.096 81.2056C148.573 82.1072 148.615 83.1005 148.242 84.0446C148.134 84.3175 148.575 84.4361 148.68 84.1654C149.097 83.1094 149.018 81.9752 148.488 80.9752C148.351 80.7156 147.957 80.9461 148.094 81.2056H148.096Z" fill="#82322A"/>
<path d="M149.365 98.3717C150.371 98.4478 151.36 98.3807 152.347 98.1816C152.634 98.1234 152.513 97.6849 152.226 97.7431C151.279 97.9333 150.33 97.9892 149.368 97.9176C149.074 97.8952 149.077 98.3516 149.368 98.374L149.365 98.3717Z" fill="#82322A"/>
<path d="M163.007 74.483C162.373 70.8588 160.792 68.6082 157.719 66.6932C151.853 63.0398 142.323 63.9079 137.059 68.0556C134.921 69.7402 133.551 72.3734 132.703 74.9529C131.76 77.8165 131.832 80.3064 132.712 83.1387C132.837 83.5436 132.971 83.9463 133.112 84.3468C133.433 85.2573 133.67 86.1746 134.16 87.0202C134.332 87.3155 134.646 87.5102 134.863 87.7272C135.109 87.9733 135.309 88.2641 135.548 88.5169C136.016 89.0091 136.773 89.7563 137.467 89.1679C138.335 88.4274 137.939 86.2462 137.836 85.2976C137.626 83.3378 137.608 81.4854 137.854 79.5055C138.154 77.0804 139.788 75.756 141.938 74.9036C146.131 73.2414 151.891 72.568 156.169 74.4965C158.162 75.3958 159.631 77.1006 160.246 79.1946C160.965 81.6398 160.266 84.2931 161.511 86.6198C161.731 87.0292 162.297 86.6444 162.436 86.3424C162.785 85.5907 162.776 84.4676 162.89 83.6533C163.033 82.6376 163.15 81.6197 163.226 80.5973C163.374 78.5614 163.36 76.501 163.009 74.4853L163.007 74.483Z" fill="#40181F"/>
<path d="M137.972 89.0379C137.336 87.4003 136.217 85.7761 134.529 85.9909C132.415 86.2616 133.154 89.3377 133.631 90.5838C134.168 91.9843 135.704 94.3535 137.634 93.4787C138.12 93.2573 138.476 92.8434 138.581 92.3333C138.652 91.9843 138.623 91.6219 138.572 91.2706C138.484 90.6733 138.29 89.8545 137.972 89.0379Z" fill="#BF5B47"/>
<path d="M163.375 86.9601C163.333 86.2084 163.138 85.4612 162.641 85.0294C160.964 83.5708 160.324 87.0586 160.199 87.8349C160.156 88.1011 160.114 88.3696 160.082 88.638C159.995 89.4166 159.646 92.0989 161.226 92.0184C162.514 91.9513 163.078 89.4814 163.248 88.6403C163.34 88.1906 163.407 87.5731 163.373 86.9601H163.375Z" fill="#BF5B47"/>
<path d="M135.022 87.3668C135.443 88.4831 135.866 89.5972 136.287 90.7136C136.39 90.9843 136.831 90.868 136.726 90.5928C136.305 89.4764 135.882 88.3623 135.461 87.246C135.358 86.9753 134.917 87.0916 135.022 87.3668Z" fill="#82322A"/>
<path d="M161.99 86.7877C161.755 87.5126 161.583 88.2486 161.471 89.0003C161.428 89.2867 161.867 89.412 161.909 89.1211C162.021 88.3672 162.194 87.6312 162.429 86.9085C162.521 86.6289 162.08 86.5081 161.99 86.7877Z" fill="#82322A"/>
<path d="M152.451 224.811C152.31 225.909 152.169 227.008 152.026 228.104C151.988 228.395 152.444 228.39 152.482 228.104C152.623 227.005 152.764 225.907 152.908 224.811C152.946 224.52 152.489 224.524 152.451 224.811Z" fill="#051726"/>
<path d="M172.909 89.7526C172.571 89.8066 172.364 90.184 172.381 90.5096C172.096 90.4391 171.789 90.5138 171.536 90.7772C171.142 91.1878 171.111 91.783 171.377 92.2683C171.812 93.0689 172.812 93.4857 173.691 93.2887C174.66 93.073 175.197 92.1335 174.981 91.1837C174.761 90.211 173.884 89.5929 172.907 89.7506L172.909 89.7526Z" fill="white"/>
<path d="M183.791 74.7495C183.451 72.9534 182.219 71.3772 180.643 70.4813C179.371 69.7596 177.169 69.127 175.873 70.1391C174.452 71.2487 175.57 73.0779 176.964 73.5445C177.524 73.7312 178.125 73.6959 178.706 73.7353C180.066 73.8287 180.825 74.5919 180.765 75.9773C180.703 77.3813 179.88 79.7125 178.397 80.1169C177.163 80.2517 175.91 80.1148 174.693 80.2683C173.992 80.3574 173.552 80.6291 173.361 81.3509C173.131 82.2199 173.204 83.0536 172.886 83.9309C172.559 84.833 172.15 85.9156 172.469 86.8821C172.99 88.4438 174.734 88.479 175.688 87.328C176.157 86.7618 176.497 86.0131 176.549 85.2748C176.619 84.2544 175.974 83.4082 177.389 83.2713C178.405 83.1739 179.145 83.4414 180.104 82.9084C181.004 82.4086 181.603 81.5603 182.146 80.71C183.248 78.9845 184.189 76.84 183.793 74.7516L183.791 74.7495Z" fill="white"/>
<path d="M195.91 24.4157C196.53 16.1789 192.189 9.34089 184.592 5.92187C179.94 3.90153 174.668 3.74612 169.707 3.4353C163.815 2.96907 157.768 2.65825 151.876 2.50284C139.317 2.50284 129.394 -0.760776 119.781 9.34089C116.835 12.4491 115.284 17.2668 115.439 21.4629C115.594 24.5711 115.439 27.9901 116.215 30.9429C117.145 34.0511 119.626 36.3823 121.796 38.558C127.378 43.842 133.27 50.2138 140.712 52.3896C148.775 54.7207 157.458 54.7207 165.675 54.0991C195.445 51.7679 194.36 43.5312 195.91 24.4157Z" fill="#C7FEFF"/>
<path d="M259.016 85.3366C259.016 84.5596 259.016 83.9379 258.861 83.1609C258.396 75.3904 256.845 67.309 253.124 60.3156C250.953 56.1195 247.852 52.3896 243.976 49.7477C237.929 45.707 231.107 43.065 223.664 43.3758C219.013 43.5313 213.896 44.7745 209.555 46.7949C194.67 53.7883 195.911 72.593 196.531 86.4245C196.841 93.2626 196.996 100.256 199.167 106.783C201.027 112.533 206.609 115.486 212.191 116.73C219.943 118.594 228.161 118.75 236.068 117.507C243.356 116.419 249.713 113.155 253.899 107.094C258.241 100.722 259.326 92.7963 259.016 85.3366Z" fill="#FBDCE1"/>
<path d="M120.401 66.8425C119.471 65.2884 118.385 63.7343 116.835 62.3356C110.168 56.1192 101.02 53.7881 92.1821 51.9231C76.522 48.5041 58.6913 50.6799 48.458 63.8897C40.0853 74.6131 40.7055 86.8905 41.3257 99.7895C41.4808 101.965 41.4808 104.141 41.6358 106.317C42.101 112.378 48.458 112.067 53.2646 112.378C72.1807 113.466 91.0967 112.378 110.168 112.533C112.339 112.533 114.664 112.533 116.37 111.134C120.091 108.337 120.091 100.722 120.866 96.5259C122.262 87.3567 124.898 75.2347 120.401 66.8425Z" fill="#FAE1D2"/>
<path d="M93.4227 94.6607C93.4227 96.5256 94.9732 98.0797 96.8338 98.0797C98.6944 98.0797 100.245 96.5256 100.245 94.6607C100.245 92.7958 98.6944 91.2417 96.8338 91.2417C94.9732 91.2417 93.4227 92.7958 93.4227 94.6607Z" fill="white"/>
<path d="M96.6788 98.0797C96.6788 99.1675 95.9035 99.9446 94.8182 99.9446V100.1C97.7641 100.1 100.245 97.6134 100.245 94.6606" fill="white"/>
<path d="M67.8395 68.3966C67.8395 66.5316 66.289 64.9775 64.4284 64.9775C62.5678 64.9775 61.0173 66.5316 61.0173 68.3966C61.0173 70.2615 62.5678 71.8156 64.4284 71.8156C66.289 71.8156 67.8395 70.2615 67.8395 68.3966Z" fill="white"/>
<path d="M64.4284 64.9774C64.4284 63.8895 65.2037 63.1124 66.289 63.1124V62.957C63.3431 62.957 60.8623 65.4436 60.8623 68.3964" fill="white"/>
<path d="M83.0344 73.5249L83.1895 73.6803C83.1895 73.5249 83.0344 73.5249 83.0344 73.5249Z" fill="white"/>
<path d="M85.8253 80.0523C86.2905 84.2484 84.2748 88.5999 80.3986 91.0864C79.0031 90.154 77.9178 89.0661 76.9875 87.512C73.5764 82.0726 75.1269 74.9238 80.5536 71.3493C81.3289 71.8156 81.9491 72.4372 82.5693 73.0588C80.7087 71.1939 78.3829 69.9506 75.9021 69.4844V62.8018L67.0643 71.6601C62.2578 75.2346 61.0174 82.0726 64.2734 87.2012C67.6845 92.6405 74.9718 94.1946 80.3986 90.7756C84.4299 88.5999 86.2905 84.2484 85.8253 80.0523Z" fill="white"/>
<path d="M79.9334 71.9707C76.9875 74.1464 75.437 77.5655 75.2819 80.9845C75.437 77.5655 76.9875 74.1464 79.9334 71.9707Z" fill="white"/>
<path d="M96.8338 75.0791C93.4227 69.6397 86.1354 68.0856 80.7087 71.5046C82.1041 72.4371 83.1895 73.525 84.1198 75.0791C87.5308 80.5184 85.9804 87.6673 80.5536 91.2418C79.7784 90.7755 79.1582 90.1539 78.538 89.5322C80.3986 91.3972 82.7243 92.6404 85.2051 93.1067V99.7893L93.8879 91.0863C98.6944 87.0457 100.09 80.2076 96.8338 75.0791Z" fill="white"/>
<path d="M78.3829 89.2214C78.3829 89.2214 78.2279 89.066 78.3829 89.2214C78.2279 89.066 78.3829 89.2214 78.3829 89.2214Z" fill="white"/>
<path d="M78.2279 89.0661L78.0728 88.9106C78.0728 88.9106 78.0728 88.9106 78.2279 89.0661Z" fill="white"/>
<path d="M171.723 42.1322C171.723 44.1525 173.428 45.862 175.444 45.862C177.459 45.862 179.165 44.1525 179.165 42.1322C179.165 40.1119 177.459 38.4023 175.444 38.4023C173.273 38.4023 171.723 40.1119 171.723 42.1322Z" fill="white"/>
<path d="M175.289 45.7068C175.289 46.7946 174.358 47.7271 173.273 47.7271V47.8825C176.374 47.8825 179.01 45.2405 179.01 42.1323" fill="white"/>
<path d="M144.589 14.1586C144.589 12.1382 142.883 10.4287 140.868 10.4287C138.852 10.4287 137.146 12.1382 137.146 14.1586C137.146 16.1789 138.852 17.8884 140.868 17.8884C142.883 17.8884 144.589 16.1789 144.589 14.1586Z" fill="white"/>
<path d="M141.023 10.5839C141.023 9.49608 141.953 8.56361 143.038 8.56361V8.4082C139.937 8.4082 137.302 11.0502 137.302 14.1584" fill="white"/>
<path d="M160.559 19.4424C160.714 19.5978 160.714 19.5978 160.559 19.4424C160.714 19.5978 160.714 19.5978 160.559 19.4424Z" fill="white"/>
<path d="M160.404 19.2871C160.404 19.2871 160.559 19.4425 160.404 19.2871C160.559 19.4425 160.404 19.2871 160.404 19.2871Z" fill="white"/>
<path d="M160.714 19.5977L160.869 19.7531L160.714 19.5977Z" fill="white"/>
<path d="M163.66 26.5912C164.125 31.0981 162.11 35.7604 157.923 38.247C156.528 37.3145 155.287 36.0712 154.357 34.5171C150.636 28.767 152.341 20.9964 158.233 17.422C159.009 17.8882 159.784 18.5099 160.404 19.2869C158.543 17.2666 156.063 16.0233 153.272 15.5571V8.4082L143.814 17.8882C138.697 21.7735 137.302 28.9224 140.868 34.3617C144.589 40.1119 152.186 41.8214 157.923 38.247C162.11 35.605 164.125 31.0981 163.66 26.5912Z" fill="white"/>
<path d="M157.458 18.0435C154.357 20.3746 152.651 23.949 152.496 27.6789C152.651 23.7936 154.357 20.3746 157.458 18.0435Z" fill="white"/>
<path d="M175.289 21.3071C171.568 15.5569 163.97 13.8474 158.233 17.4219C159.629 18.3543 160.869 19.5976 161.799 21.1517C165.521 26.9019 163.815 34.6724 157.923 38.2468C157.148 37.7806 156.373 37.159 155.752 36.3819C157.613 38.4023 160.094 39.6455 162.885 40.1118V47.1052L172.188 37.7806C177.304 34.0508 178.855 26.7465 175.289 21.3071Z" fill="white"/>
<path d="M155.597 36.0709L155.442 35.9155C155.442 35.9155 155.442 36.0709 155.597 36.0709Z" fill="white"/>
<path d="M240.565 96.6813C240.565 98.5462 242.116 100.1 243.976 100.1C245.837 100.1 247.387 98.5462 247.387 96.6813C247.387 94.8164 245.837 93.2623 243.976 93.2623C242.116 93.1069 240.565 94.8164 240.565 96.6813Z" fill="white"/>
<path d="M243.976 100.1C243.976 101.188 243.201 101.965 242.116 101.965V102.121C245.062 102.121 247.542 99.6339 247.542 96.6812" fill="white"/>
<path d="M214.827 70.2618C214.827 68.3969 213.276 66.8428 211.416 66.8428C209.555 66.8428 208.005 68.3969 208.005 70.2618C208.005 72.1267 209.555 73.6808 211.416 73.6808C213.276 73.6808 214.827 72.1267 214.827 70.2618Z" fill="white"/>
<path d="M211.416 66.8426C211.416 65.7547 212.191 64.9777 213.276 64.9777V64.8223C210.33 64.8223 207.85 67.3088 207.85 70.2616" fill="white"/>
<path d="M230.177 75.3901L230.332 75.5455C230.177 75.3901 230.177 75.3901 230.177 75.3901Z" fill="white"/>
<path d="M232.968 81.9175C233.433 86.269 231.417 90.6205 227.541 92.9517C226.145 92.0192 225.06 90.9313 224.13 89.3772C220.719 83.9379 222.269 76.6336 227.696 73.2146C228.471 73.6808 229.091 74.3024 229.712 74.9241C227.851 73.0592 225.525 71.8159 223.044 71.3496V64.667L214.052 73.6808C209.245 77.2552 207.85 84.0933 211.261 89.3772C214.672 94.8166 221.959 96.5261 227.541 92.9517C231.417 90.6205 233.433 86.269 232.968 81.9175Z" fill="white"/>
<path d="M227.076 73.8359C224.13 76.0117 222.424 79.4307 222.424 82.8497C222.424 79.4307 224.13 76.0117 227.076 73.8359Z" fill="white"/>
<path d="M243.976 76.9443C240.565 71.5049 233.278 69.7954 227.696 73.3698C229.091 74.3023 230.177 75.3902 231.107 76.9443C234.518 82.3836 232.968 89.6879 227.541 93.1069C226.766 92.6407 226.146 92.0191 225.525 91.3974C227.386 93.2624 229.712 94.5056 232.192 94.9719V101.499L241.03 92.6407C245.992 89.0663 247.232 82.2282 243.976 76.9443Z" fill="white"/>
<path d="M225.215 90.9313L225.06 90.7759L225.215 90.9313Z" fill="white"/>
<path d="M225.37 91.0866C225.215 91.0866 225.215 90.9312 225.37 91.0866C225.215 90.9312 225.215 91.0866 225.37 91.0866Z" fill="white"/>
</svg>
